<svg xmlns="http://www.w3.org/2000/svg" xmlns:xlink="http://www.w3.org/1999/xlink" width="40" height="49" viewBox="0 0 40 49">
    <defs>
        <path id="a" d="M0 0h60v60H0z"/>
    </defs>
    <g fill="none" fill-rule="evenodd" transform="translate(-12 -5)">
        <mask id="b" fill="#fff">
            <use xlink:href="#a"/>
        </mask>
        <g mask="url(#b)">
            <path fill="#FFBEBE" stroke="#844C22" stroke-linecap="round" stroke-linejoin="round" d="M17.429 10.648c-.567 4.03-.362 6.964.614 8.804 1.464 2.76 2.33 2.553 2.904 5.04.574 2.487.276 3.837 1.363 7.048 1.086 3.211 1.594 1.554 2.636 5.072 1.042 3.519-1.133 2.281-.06 5.428s3.037 3.37 3.455 5.84c.278 1.648.394 3.078.348 4.29l13.568-3.965c.886-1.497 1.002-3.146.348-4.947-.981-2.703-2.653-4.411-3.628-6.665-.974-2.253.76-4.393-.394-6.452-1.154-2.06-3.393-3.502-3.583-5.619-.19-2.117.78-2.615-.149-5.065-.928-2.45-1.508-2.71-2.75-4.877-.827-1.444-1.067-4.164-.72-8.16l-13.952 4.228z"/>
            <path fill="#F08484" d="M37.944 49.23c1.805-1.15 1.992-3.142.56-5.975-.789-1.56-3.873-3.938-3.926-5.37-.092-2.468 1.268-4.926.399-6.533-1.374-2.54-4.239-4.77-4.72-7.39-.482-2.619 1.068-2.485-.425-5.336-1.493-2.85-3.151-5.331-3.371-6.647-.147-.878-.047-2.201.299-3.971L22.237 9.54c-.398.996-.336 2.29.186 3.88.783 2.384 3.673 4.053 4.084 6.334.41 2.28-1.315 4.406-.126 6.635 1.188 2.229 3.606 3.94 4.411 6.486.462 1.459-1.042 3.171-.088 5.877.712 2.016 3.921 5.136 4.255 6.154.522 1.589.387 3.32-.406 5.191l3.39-.867z"/>
            <path fill="#F08484" d="M32.298 51.415c1.805-1.15 1.992-3.143.56-5.976-.789-1.56-3.873-3.938-3.926-5.37-.092-2.467 1.268-4.925.399-6.533-1.374-2.54-4.239-4.77-4.72-7.39-.482-2.618 1.068-2.485-.425-5.336-1.493-2.85-3.151-5.331-3.371-6.647-.147-.877-.047-2.2.299-3.97l-1.568.73c-.398.995-.336 2.288.186 3.878.783 2.385 3.673 4.054 4.084 6.335.41 2.28-1.315 4.406-.126 6.635 1.188 2.228 3.606 3.94 4.411 6.486.462 1.459-1.042 3.171-.087 5.877.71 2.016 3.92 5.136 4.254 6.154.522 1.589.387 3.32-.406 5.191l.436-.064z"/>
            <path fill="#FDDCDC" d="M39.555 48.915c1.805-1.15 1.992-3.142.56-5.975-.789-1.56-3.873-3.939-3.926-5.37-.092-2.468 1.268-4.926.399-6.533-1.374-2.54-4.239-4.77-4.72-7.39-.482-2.619 1.069-2.486-.425-5.336-1.493-2.85-3.15-5.331-3.371-6.647-.147-.878-.047-2.201.299-3.971l-1.568.73c-.398.996-.336 2.289.186 3.879.783 2.385 3.673 4.053 4.084 6.334.41 2.281-1.315 4.406-.126 6.635 1.188 2.229 3.606 3.94 4.411 6.486.462 1.46-1.042 3.172-.087 5.877.71 2.016 3.92 5.136 4.254 6.154.522 1.59.387 3.32-.406 5.192l.436-.065z"/>
            <path fill="#F08484" d="M37.944 49.23c1.805-1.15 1.992-3.142.56-5.975-.789-1.56-3.873-3.938-3.926-5.37-.092-2.468 1.268-4.926.399-6.533-1.374-2.54-4.239-4.77-4.72-7.39-.482-2.619 1.068-2.485-.425-5.336-1.493-2.85-3.151-5.331-3.371-6.647-.147-.878-.047-2.201.299-3.971L22.237 9.54c-.398.996-.336 2.29.186 3.88.783 2.384 3.673 4.053 4.084 6.334.41 2.28-1.315 4.406-.126 6.635 1.188 2.229 3.606 3.94 4.411 6.486.462 1.459-1.042 3.171-.088 5.877.712 2.016 3.921 5.136 4.255 6.154.522 1.589.387 3.32-.406 5.191l3.39-.867z"/>
            <g>
                <path fill="#FFBEBE" stroke="#844C22" stroke-linecap="round" stroke-linejoin="round" d="M40.6 11.536c-3.658 1.784-5.977 3.594-6.956 5.432-1.469 2.757-.814 3.36-2.555 5.226-1.74 1.867-3.026 2.375-5.08 5.071-2.055 2.697-.397 2.191-2.731 5.022-2.334 2.832-2.525.336-4.534 2.986-2.009 2.649-1.095 4.402-2.91 6.13-1.21 1.152-2.33 2.048-3.362 2.687l10.875 9.031c1.736-.102 3.168-.928 4.296-2.478 1.692-2.324 2.173-4.666 3.497-6.734 1.323-2.068 4.066-1.827 5.128-3.935 1.062-2.108 1.006-4.771 2.655-6.112 1.648-1.342 2.604-.817 4.116-2.956 1.512-2.14 1.403-2.767 2.505-5.007.734-1.493 2.855-3.213 6.362-5.16L40.6 11.536z"/>
                <path fill="#F08484" d="M20.085 50.119c1.963.853 3.719-.106 5.267-2.877.853-1.527 1.1-5.414 2.256-6.258 1.995-1.456 4.793-1.703 5.64-3.322 1.337-2.56 1.584-6.182 3.486-8.046 1.902-1.863 2.659-.504 4.187-3.336 1.528-2.832 2.658-5.594 3.626-6.512.645-.612 1.798-1.27 3.459-1.972l-3.8-2.893c-1.048.227-2.085 1.001-3.111 2.323-1.54 1.983-1.307 5.312-2.968 6.928-1.662 1.616-4.389 1.374-5.572 3.606-1.183 2.231-1.25 5.193-2.91 7.284-.952 1.198-3.212.91-4.921 3.214-1.274 1.717-2.066 6.122-2.723 6.968-1.025 1.322-2.536 2.177-4.53 2.567l2.614 2.326z"/>
                <path fill="#F08484" d="M15.117 46.66c1.963.853 3.719-.106 5.267-2.878.853-1.526 1.1-5.413 2.256-6.258 1.995-1.455 4.793-1.702 5.64-3.322 1.337-2.56 1.584-6.181 3.486-8.045 1.902-1.864 2.659-.504 4.187-3.336 1.528-2.832 2.658-5.594 3.626-6.512.645-.612 1.798-1.27 3.459-1.973l-1.482-.891c-1.048.227-2.086 1.001-3.112 2.323-1.54 1.983-1.306 5.312-2.968 6.928-1.661 1.616-4.388 1.374-5.571 3.605-1.183 2.232-1.25 5.194-2.91 7.285-.952 1.198-3.212.91-4.922 3.213-1.273 1.718-2.065 6.123-2.722 6.969-1.026 1.321-2.536 2.177-4.531 2.567l.297.325z"/>
                <path fill="#FDDCDC" d="M21.247 51.278c1.963.854 3.72-.106 5.267-2.877.853-1.526 1.1-5.413 2.256-6.258 1.995-1.455 4.794-1.702 5.64-3.322 1.337-2.56 1.584-6.181 3.487-8.045 1.902-1.864 2.658-.504 4.186-3.336s2.658-5.594 3.626-6.512c.645-.613 1.798-1.27 3.459-1.973l-1.482-.891c-1.048.226-2.085 1-3.112 2.323-1.539 1.982-1.306 5.312-2.967 6.928-1.662 1.616-4.389 1.373-5.572 3.605-1.183 2.232-1.25 5.193-2.91 7.285-.952 1.198-3.212.909-4.921 3.213-1.274 1.717-2.066 6.122-2.723 6.969-1.026 1.321-2.536 2.177-4.531 2.566l.297.325z"/>
                <path fill="#F08484" d="M20.085 50.119c1.963.853 3.719-.106 5.267-2.877.853-1.527 1.1-5.414 2.256-6.258 1.995-1.456 4.793-1.703 5.64-3.322 1.337-2.56 1.584-6.182 3.486-8.046 1.902-1.863 2.659-.504 4.187-3.336 1.528-2.832 2.658-5.594 3.626-6.512.645-.612 1.798-1.27 3.459-1.972l-3.8-2.893c-1.048.227-2.085 1.001-3.111 2.323-1.54 1.983-1.307 5.312-2.968 6.928-1.662 1.616-4.389 1.374-5.572 3.606-1.183 2.231-1.25 5.193-2.91 7.284-.952 1.198-3.212.91-4.921 3.214-1.274 1.717-2.066 6.122-2.723 6.968-1.025 1.322-2.536 2.177-4.53 2.567l2.614 2.326z"/>
            </g>
        </g>
    </g>
</svg>
