<svg xmlns="http://www.w3.org/2000/svg" xmlns:xlink="http://www.w3.org/1999/xlink" width="65" height="38" viewBox="0 0 65 38">
    <defs>
        <path id="a" d="M0 0h80v60H0z"/>
        <ellipse id="c" cx="42.5" cy="20.5" rx="1.5" ry="2.5"/>
        <ellipse id="d" cx="12.5" cy="20.123" rx="1.5" ry="3.123"/>
    </defs>
    <g fill="none" fill-rule="evenodd" transform="translate(-6 -9)">
        <mask id="b" fill="#fff">
            <use xlink:href="#a"/>
        </mask>
        <g mask="url(#b)">
            <path fill="#F5D6C3" stroke="#B24840" d="M18 36.123c-3.168-.533-5.107-.432-5.82.303-1.067 1.104-2.969 2.55-4.632.652-1.11-1.265-.534-2.712 1.726-4.34-1.593-1.386-1.835-2.75-.726-4.092 1.109-1.342 2.705-.593 4.788 2.247H18v5.23z"/>
            <path fill="#E7BAAB" stroke="#9F4639" stroke-linecap="round" stroke-linejoin="round" d="M16 30.733c2.774-3.457 4.683-5.185 5.725-5.185 1.564 0 2.753-3.51 4.074-5.643 1.321-2.134 4.374-5.612 8.206-6.889 2.22-.739 7.359-2.282 10.318-1.437 1.434.41 3.398.888 5.89 1.437-.245-.958-.88-1.437-1.903-1.437-2.395 0-2.204 2.314-3.221 3.381-1.018 1.067-.844 4.529-1.422 7.041-.578 2.512-4.944 7.625-4.944 12.65 0 5.026.55 7.933 4.094 9.368 3.545 1.435 4.146.872 6.458.872 2.312 0 7.725-3.63 7.725-9.394 0-5.763-2.903-10.507-2.903-12.46 0-1.304-.819-3.996-2.458-8.077-1.459-2.918-4.4-4.543-8.822-4.876-6.633-.499-9.316 1.23-13.25 4.876-3.934 3.647-5.012 7.815-6.84 9.551-1.217 1.158-3.46 3.232-6.727 6.222z"/>
            <path fill="#9F4639" d="M14.64 29.316c-.427.1-.64 1.171-.64 3.212 0 3.061.472 4.707 1.923 4.707.967 0 2.084.096 3.35.287 2.317 2.15 4.53 3.844 6.64 5.079C29.076 44.453 36.762 46 40.387 46h6.088c-1.89-.507-3.92-1.64-6.088-3.4-3.252-2.637-2.684-6.543-1.574-10.072 1.11-3.53.449-2.85 1.574-5.3 1.132-2.463 2.543-3.076 2.596-3.17 1.274-2.234-.016-4.87 2.021-8.763.85-1.624.78-2.487 2.636-2.294.582.06 1.702.825 3.359 2.294-1.925-2.27-3.637-3.635-5.137-4.093-3.033-.926-11.518 1.62-12.36 1.799-6.17 1.304-8.893 8.028-10.277 10.465-1.384 2.436-1.901 1.514-3.952 2.831a491.204 491.204 0 0 0-4.634 3.019z"/>
            <g transform="translate(7 10)">
                <use fill="#F0E8E4" stroke="#9F4639" xlink:href="#c"/>
                <use stroke="#FEE1D0" stroke-width=".5" xlink:href="#c"/>
            </g>
            <path fill="#B04940" stroke="#782A22" d="M44.038 29.116c-.81-.45-3.302 3.038-3.022 6.244.28 3.206 1.96 4.558 4.031 5.288 2.072.73 4.437-.292 4.259-2.33-.179-2.04-2.503-1.947-3.83-4.61-1.326-2.664-.627-4.142-1.438-4.592zM45.853 21.768c-.435 1.583-1.568 3.152-.195 4.063 1.372.91 1.763-2.156 3.67-2.156 1.77 0 2.77 2.382 2.664-.236-.106-2.619-.36-7.439-2.976-7.439s-2.704 4.095-3.163 5.768z"/>
            <path fill="#B0493E" stroke="#772B21" d="M53.505 28c-.836 0 .24 4.765-.786 6.853-1.025 2.088-.89 4.273 0 4.141.89-.131 2.281-1.152 2.281-4.14 0-2.99-.66-6.854-1.495-6.854z"/>
            <path stroke="#782A24" d="M38 23.445c-2.401-.593-4.643-.593-6.726 0C29.192 24.037 26.1 25.555 22 28"/>
            <path fill="#BB6351" d="M24 23c4.472-4.351 7.802-6.527 9.99-6.527 3.28 0 7.01-2.005 7.01-3.71 0-1.703-6.619-.3-9.956 1.705C28.819 15.804 26.471 18.648 24 23z"/>
            <path fill="#BD6251" d="M24 28.764C26.71 26.92 29.262 26 31.657 26c3.592 0 2.431 2.232.635 2.764-1.797.531-3.22 0-5.126 0H24z"/>
            <path fill="#FDF6F3" d="M8.675 28.481c-.435.567-.66 1.168-.675 1.804.68.604 1.4.825 2.161.664 1.142-.241.787-1.655.787-1.655l-1-1.013c-.414-.433-.839-.366-1.273.2z"/>
            <path fill="#BFA599" d="M8.006 35.112c.588.694 1.292.903 2.112.628 1.23-.414 1.942-1.74 2.631-1.74h2.048l.203.938c-.777-.01-1.601.11-2.471.363-1.13.894-1.743 2.13-3.41 1.55-.8-.274-1.172-.853-1.113-1.739z"/>
            <path fill="#762C21" d="M21 37.562c2.36 1.726 3.539 2.301 3.539 1.726v-1.726c1.85 1.295 3.482 1.618 4.897.971 1.416-.647 2.124-1.825 2.124-3.533.767 2.355 1.88 4.31 3.336 5.862C38.27 43.434 42.638 44.51 48 44.09c-3.054 1.365-8.808 1.194-17.263-.512-5.565-2.152-8.81-4.157-9.737-6.016z"/>
            <path stroke="#4D1812" d="M24 37c3.158 3.066 6.247 5.115 9.266 6.146C36.285 44.177 40.53 44.796 46 45"/>
            <path fill="#762B20" d="M30 23c1.643-.904 2.997-1.355 4.062-1.355 1.598 0 2.453-.525 3.607-1.412.77-.592 1.547-1.336 2.331-2.233-.2 2.252-.473 3.648-.821 4.189-.348.54-.851.811-1.51.811H30z"/>
            <path stroke="#FFE1D1" d="M43.013 42.143C40.958 40.372 40 39.626 40 35.27c.789-6.285 2.105-7.946 5.129-12.56.827-3.555.017-10.968 4.912-10.704 1.547.43 3.052 4.447 4.516 12.047 2.044 4.672 2.806 8.69 2.284 12.053-.782 5.045-3.207 6.036-5.752 7.27-2.544 1.235-6.021.536-8.076-1.234z"/>
            <path fill="#9F4639" stroke="#762C21" d="M56.494 45.84c-2.954-1.163-5.576-3.128-6.547-7.335-1.1-4.769-.465-8.55 1.492-13.886.002-1.44.015-4.37.04-8.786a3 3 0 0 1 2.324-2.906l2.108-.487c2.408-.556 5.268 3.241 8.578 11.391 3.493 3.704 5.368 7.306 5.626 10.806.387 5.25.743 8.259-1.518 10.087-2.262 1.829-9.15 2.278-12.103 1.115z"/>
            <path fill="#E7BAAB" stroke="#FFE1D1" d="M56.639 43.956c-2.363-1.249-3.447-1.754-4.415-5.944-.64-6.22.254-8.11 2.128-13.218.004-3.603-2.42-10.554 2.332-11.384 1.579.072 3.914 3.602 7.004 10.59 3.122 3.72 4.807 7.255 5.054 10.606.37 5.027.905 6.877-1.26 8.628-2.165 1.75-8.48 1.97-10.843.722z"/>
            <g transform="rotate(-13 87.161 -186.645)">
                <use fill="#EBDFDB" stroke="#9F4639" xlink:href="#d"/>
                <use stroke="#FEE1D0" stroke-width=".5" xlink:href="#d"/>
            </g>
            <path fill="#B04940" stroke="#782A22" d="M55.618 31.257c-.896-.241-2.597 3.66-1.624 6.655.973 2.994 2.922 3.896 5.124 4.115 2.202.219 4.958-.129 4.339-2.033-.619-1.904-3.537-2.453-5.423-4.688-1.887-2.235-1.519-3.807-2.416-4.049zM55.282 23.131c-.107 1.598-.943 3.35.682 3.88 1.625.53 1.363-2.457 3.346-2.915 1.84-.425 3.4 1.582 2.718-.862-.68-2.444-1.994-6.93-4.713-6.302-2.72.628-1.92 4.511-2.033 6.2z"/>
            <path fill="#B04940" stroke="#772B21" d="M64.195 27.659c-.852.197 1.306 4.54.725 6.797-.58 2.256.415 5.891 1.294 5.555.879-.337 1.7-3.208 1.033-6.092-.665-2.884-2.2-6.457-3.052-6.26z"/>
        </g>
    </g>
</svg>
