<svg xmlns="http://www.w3.org/2000/svg" xmlns:xlink="http://www.w3.org/1999/xlink" width="55" height="41" viewBox="0 0 55 41">
    <defs>
        <path id="a" d="M0 0h60v60H0z"/>
    </defs>
    <g fill="none" fill-rule="evenodd" transform="translate(-3 -9)">
        <mask id="b" fill="#fff">
            <use xlink:href="#a"/>
        </mask>
        <g mask="url(#b)">
            <g transform="scale(1 -1) rotate(74 49.88 -6.412)">
                <path fill="#FFFAE7" stroke="#844C22" stroke-linecap="round" stroke-linejoin="round" d="M24.212 21.926c-3.424 3.326-5.301 5.375-7.251 6.147-1.95.772-8.263 1.207-11.62 0-2.238-.805-4.018-1.856-5.341-3.155L5.792 2.95 11.873 0"/>
                <ellipse cx="13.259" cy="18.447" fill="#EABC20" rx="2.882" ry="2.306"/>
                <circle cx="8.071" cy="9.224" r="1.153" fill="#F8C722"/>
                <path fill="#E1CA7D" stroke="#844C22" stroke-linecap="round" stroke-linejoin="round" d="M11.53 0h2.768l12.22 21.38-2.22 1.68"/>
                <path fill="#C25E13" stroke="#844C22" stroke-linecap="round" stroke-linejoin="round" d="M13.835 28.824c3.924-.055 6.97-.794 9.137-2.218 2.168-1.424 3.41-2.841 3.726-4.25h-3.726c-.088 1.583-.939 3-2.552 4.25s-3.808 1.989-6.585 2.218z"/>
                <path fill="#4D5E62" d="M6.763 13.77c-.666.901-.998 1.702-.998 2.401 0 1.05.872.167 1.508 1.05.637.881 0 1.863 0 2.554 0 .692.676 1.383 1.548.692.872-.692.126.332-.353-1.437-.48-1.769.973-2.106 0-2.859-.974-.752-1.705.062-1.705-.752 0-.814 1.463-2.106.731-2.608-.488-.335-.731-.015-.731.958z"/>
                <path fill="#56828D" d="M9.224 6.713c.727.01 1.254.43 1.582 1.26.49 1.243-.491 1.964-.491 2.92 0 .955-.036 1.79.49 1.79.528 0 .542-.979.911-1.79.369-.812 1.445-2.92.723-2.92-.723 0-1.339-.312-1.486-1.26-.147-.948-1.05-.948-1.39-.948-.226 0-.34.316-.34.948z"/>
                <path fill="#4D5E62" d="M17.634 18.447c-.737 0-.704 1.114-1.187 2.247-.484 1.134.967 1.978.483 2.47-.483.493-3.359 2.126-3.784 1.201-.426-.924.09-2.456-1.556-1.723-.356.159-.817.708-1.106 1.723-.289 1.016.04 2.153.573 2.153.533 0 .262-2.395.967-1.586.704.81 3.465 1.181 4.906 0 1.441-1.18-.033-2.834.704-3.536s1.966.358 1.966-.702c0-1.059-.491-1.059-1.229-1.059-.737 0 0-1.188-.737-1.188z"/>
                <path fill="#65A0AF" d="M16.712 14.704c.126.58.032 1.05-.283 1.415-.473.547-.283 1.175 0 1.175h.969c.467 0 1.05-1.055 1.05-1.175 0-.12-.947.472-1.05-.12-.104-.591.48-2.164-.104-2.164-.388 0-.582.29-.582.869z"/>
            </g>
            <g transform="translate(20 10)">
                <path fill="#FFFAE7" stroke="#844C22" stroke-linecap="round" stroke-linejoin="round" d="M34 29.88c-4.718 4.51-7.304 7.289-9.99 8.335-2.687 1.047-11.385 1.637-16.01 0-3.083-1.091-5.536-2.517-7.358-4.278L8.622 4.15 17 .15"/>
                <circle cx="17.5" cy="24.5" r="3.5" fill="#EABC20"/>
                <circle cx="12" cy="13" r="2" fill="#F8C722"/>
                <path fill="#E1CA7D" stroke="#844C22" stroke-linecap="round" stroke-linejoin="round" d="M16.963.21h3.68l16.245 27.638-2.952 2.17"/>
                <path fill="#C25E13" stroke="#844C22" stroke-linecap="round" stroke-linejoin="round" d="M18.347 39.17c5.27-.077 9.361-1.108 12.272-3.095 2.912-1.987 5.015-4.708 6.311-8.165l-3.166 1.95c-2.215 2.4-4.406 4.472-6.572 6.215-2.167 1.743-5.115 2.775-8.845 3.095z"/>
                <path fill="#4D5E62" d="M9.344 19c-.94 1.187-1.41 2.24-1.41 3.16 0 1.38 1.233.22 2.132 1.38.9 1.16 0 2.45 0 3.36 0 .91.956 1.82 2.19.91 1.233-.91.177.437-.5-1.89-.678-2.327 1.376-2.77 0-3.76-1.377-.99-2.412.08-2.412-.99s2.07-2.77 1.035-3.43c-.69-.44-1.035-.02-1.035 1.26z"/>
                <path fill="#56828D" d="M12.733 9.24c1.119.013 1.93.567 2.434 1.66.755 1.64-.756 2.59-.756 3.85 0 1.26-.056 2.36.756 2.36.81 0 .833-1.29 1.4-2.36.566-1.07 2.222-3.85 1.11-3.85-1.11 0-2.058-.41-2.284-1.66-.226-1.25-1.615-1.25-2.138-1.25-.348 0-.522.416-.522 1.25z"/>
                <path fill="#4D5E62" d="M25.1 24.37c-1 0-.955 1.65-1.611 3.33-.656 1.68 1.311 2.93.656 3.66-.656.73-4.557 3.15-5.134 1.78-.578-1.37.122-3.64-2.111-2.554-.483.235-1.108 1.049-1.5 2.554-.392 1.505.056 3.19.778 3.19s.355-3.55 1.31-2.35c.956 1.2 4.701 1.75 6.657 0 1.955-1.75-.045-4.2.955-5.24s2.667.53 2.667-1.04-.667-1.57-1.667-1.57 0-1.76-1-1.76z"/>
                <path fill="#65A0AF" d="M22.578 19.74c.244.773.063 1.403-.545 1.89-.91.73-.544 1.57 0 1.57H23.9c.9 0 2.022-1.41 2.022-1.57 0-.16-1.823.63-2.022-.16-.2-.79.923-2.89-.2-2.89-.748 0-1.122.386-1.122 1.16z"/>
            </g>
        </g>
    </g>
</svg>
