<svg xmlns="http://www.w3.org/2000/svg" xmlns:xlink="http://www.w3.org/1999/xlink" width="51" height="35" viewBox="0 0 51 35">
    <defs>
        <path id="a" d="M0 0h60v60H0z"/>
    </defs>
    <g fill="none" fill-rule="evenodd" transform="translate(-7 -15)">
        <mask id="b" fill="#fff">
            <use xlink:href="#a"/>
        </mask>
        <g mask="url(#b)">
            <path fill="#FACA92" stroke="#782A24" d="M48.07 47.205c-4.093 2.663-12.581.59-15.942-5.004-3.362-5.594-1.922-14.22 2.716-17.006 3.092-1.858 5.73-.627 7.912 3.694l1.615 2.689 4.16-2.499c3.19-3.704 5.661-4.1 7.411-1.187 1.75 2.913.212 4.86-4.615 5.841l-4.16 2.499 2.564 4.266c1.62 2.696 1.066 4.932-1.662 6.707z"/>
            <path fill="#B14840" stroke="#782A24" d="M50.44 44.155c-.568.342-5.206-2.744-8.403-8.065-3.197-5.32-4.303-10.396-3.118-11.109.79-.474 2.485 1.675 5.084 6.447-.3.845-.083 1.876.647 3.092.731 1.216 1.518 1.854 2.36 1.914 3.077 4.672 4.22 7.246 3.43 7.721z"/>
            <path fill="#EBCDB7" stroke="#83362E" stroke-linecap="round" stroke-linejoin="round" d="M46.87 37.203l3.142-1.413c-.978-.619-1.819-1.513-2.52-2.68a9.554 9.554 0 0 1-1.31-3.695l-2.763 2.042c-.766 1.67-.748 3.026.053 4.068.802 1.041 1.935 1.6 3.399 1.678z"/>
            <path fill="#D29678" d="M31.586 40.14c-.203-2.504.82-4.816 3.068-6.938s3.683-2.984 4.304-2.586c-.494-1.447-.792-2.624-.895-3.531-.102-.907.026-1.695.385-2.365-2.625-.178-4.822 1.37-6.594 4.643-1.443 3.79-1.533 7.383-.268 10.777zM33.504 43.51c3.416 3.25 6.896 4.32 10.44 3.212 1.775-.627 3.118-1.74 4.029-3.34.39.322.8.607 1.231.855.43.248.693.349.786.302-1.343 2.42-3.945 3.598-7.808 3.535-2.96-.468-5.852-1.989-8.678-4.563z"/>
            <path fill="#FFEFC8" d="M32.238 41.648c2.369.53 4.175.578 5.418.143 1.864-.653 1.845-1.11 3.077-1.102 1.231.008 1.796.166 2.087 1.568.292 1.401-.83 2.442-3.86 2.32-2.7.05-4.94-.926-6.722-2.929z"/>
            <path fill="#D29678" d="M48.603 34.024c1.452-.904 2.626-1.464 3.521-1.682 1.343-.326 4.246-1.595 2.766-4.059-1.48-2.463-3.446.383-4.905 1.26l-2.876 1.728-.194-.677c.527-.41 1.202-.863 2.026-1.357.257-.245 4.094-5.433 6.563-1.323 1.713 2.852.268 4.64-4.335 5.367l-2.095 1.26-.471-.517z"/>
            <path fill="#FFEFC8" d="M51.607 31.108c.595.366 3.301-.227 2.686-1.614-.615-1.388-2.041-.41-2.57.257-.53.667-.71.99-.116 1.357z" opacity=".599"/>
            <path fill="#782A24" d="M50.206 42.944c-3.407-2.01-5.926-4.372-7.556-7.085-2.446-4.07-2.711-9.612-2.666-9.928.021-.15.637.575 1.764 2.321.306.474.842 1.366 1.608 2.676-1.121 1.78-1.218 3.34-.292 4.682.966 1.399 2.331 2.052 4.096 1.958.506.58 1.044 1.372 1.613 2.376a22.858 22.858 0 0 1 1.433 3z" opacity=".522"/>
            <path fill="#D1A686" d="M44.742 36.097c.84.324 1.587.29 2.242-.104.654-.393 1.103-.747 1.347-1.062l.776.762c-1.06.594-1.883.954-2.468 1.08-.585.126-1.217-.099-1.897-.676zM43.51 34.715c.209-1.031.6-1.784 1.175-2.26.574-.475 1.115-.737 1.622-.787l-.447-1.472c-1.07.563-1.838 1.163-2.305 1.8-.466.639-.481 1.545-.046 2.719z"/>
            <g>
                <path fill="#FACA92" stroke="#782A24" d="M8.016 29.276c-.203-5.66 6.93-12.862 14.5-12.862S37.803 23 37.803 29.276c0 4.184-2.8 6.07-8.4 5.66h-3.64v5.628c1.778 5.386.695 8.079-3.247 8.079-3.942 0-4.96-2.693-3.05-8.08v-5.628h-5.774c-3.648 0-5.54-1.886-5.676-5.66z"/>
                <path fill="#B14840" stroke="#782A24" d="M9.632 33.455c0-.769 5.84-3.536 13.04-3.536 7.2 0 12.908 1.932 12.908 3.536 0 1.07-3.149 1.47-9.447 1.203-.662-.802-1.815-1.203-3.461-1.203s-2.75.401-3.313 1.203c-6.485.268-9.727-.133-9.727-1.203z"/>
                <path fill="#EBCDB7" stroke="#83362E" stroke-linecap="round" stroke-linejoin="round" d="M18.678 34.06l-.473 3.967c1.2-.603 2.591-.904 4.171-.904s3.066.301 4.457.904l-.38-3.967c-1.203-1.76-2.562-2.552-4.077-2.377-1.514.175-2.747.968-3.698 2.377z"/>
                <path fill="#D29678" d="M24.889 17.107c2.61 1.294 4.3 3.692 5.066 7.195.767 3.504.767 5.446 0 5.825 1.734.374 3.082.78 4.045 1.22.963.44 1.67 1.039 2.122 1.795 1.745-2.503 1.519-5.613-.678-9.33-2.906-3.7-6.425-5.935-10.555-6.705zM20.392 17c-5.273 1.456-8.416 4.277-9.431 8.462-.437 2.14-.133 4.14.914 6.002-.554.196-1.082.434-1.586.713-.504.28-.76.48-.77.602-1.603-2.781-1.22-6.073 1.15-9.877 2.234-2.663 5.474-4.63 9.723-5.902z"/>
                <path fill="#FFEFC8" d="M23 16.854c-1.943 2.039-3.07 3.806-3.379 5.302-.464 2.244 0 2.498-.743 3.718-.743 1.22-1.238 1.686-2.806 1.139-1.568-.547-1.932-2.286 0-5.224 1.562-2.716 3.872-4.36 6.928-4.935z"/>
                <path fill="#D29678" d="M20.803 37.681c.031 1.985-.112 3.487-.43 4.507-.479 1.53-.951 5.174 2.382 5.174 3.334 0 1.678-3.654 1.678-5.63v-3.89l.79.21c.092.77.139 1.711.139 2.825.09.403 2.955 7.317-2.607 7.317-3.858 0-4.774-2.506-2.746-7.518v-2.835l.794-.16z"/>
                <path fill="#FFEFC8" d="M21.908 42.411c-.72.373-1.747 3.418 0 3.635 1.748.218 1.628-1.785 1.28-2.71-.346-.925-.56-1.297-1.28-.925z" opacity=".599"/>
                <path fill="#782A24" d="M10.977 33.946c4.034-2.186 7.887-3.28 11.559-3.28 5.508 0 11.177 3.047 11.464 3.28.136.111-.952.29-3.362.368-.653.02-1.86.02-3.621 0-1.1-2.178-2.594-3.208-4.481-3.088-1.968.125-3.433 1.093-4.394 2.903-.88.157-1.988.219-3.326.185a26.516 26.516 0 0 1-3.84-.368z" opacity=".522"/>
                <path fill="#D1A686" d="M21.049 32.604c-.824.641-1.237 1.405-1.237 2.29 0 .887.084 1.545.252 1.975l-1.221.317c.043-1.41.176-2.443.4-3.1.224-.656.826-1.15 1.806-1.482zM23.16 32.204c.9.824 1.415 1.663 1.544 2.518.13.855.068 1.55-.186 2.084l1.73.435c.08-1.4-.058-2.522-.413-3.367-.356-.845-1.248-1.402-2.675-1.67z"/>
            </g>
        </g>
    </g>
</svg>
