<svg xmlns="http://www.w3.org/2000/svg" xmlns:xlink="http://www.w3.org/1999/xlink" width="55" height="49" viewBox="0 0 55 49">
    <defs>
        <path id="a" d="M0 0h60v60H0z"/>
    </defs>
    <g fill="none" fill-rule="evenodd" transform="translate(-2 -6)">
        <mask id="b" fill="#fff">
            <use xlink:href="#a"/>
        </mask>
        <g mask="url(#b)">
            <path fill="#598419" stroke="#844C22" d="M20.65 33.082c-1.664 2.594-3.554 3.458-5.67 2.594-3.175-1.297-7.333-6.736-8.722-9.527-1.39-2.79-1.587-4.613-.794-5.709.794-1.096 5.263.078 8.136 1.096 2.873 1.018 7.55 4.54 8.22 6.464.448 1.282.058 2.977-1.17 5.082z"/>
            <path fill="#598419" stroke="#844C22" d="M12.031 21.06c-.132-.873.154-1.94.856-3.2.551-.987 1.339-1.877 2.363-2.67a1 1 0 0 1 1.462.264C18.237 17.914 19 19.56 19 20.388c0 .924-.732 1.795-2.195 2.612a9.557 9.557 0 0 1-2.645-1.149c-.848-.527-1.558-.791-2.129-.791z"/>
            <path fill="#43680D" stroke="#844C22" d="M7.725 19.256c-.88-.91-1.562-2.125-2.05-3.645-.33-1.034-.55-2.182-.655-3.443a1 1 0 0 1 1.498-.949c2.365 1.37 3.865 2.284 4.5 2.74.765.55 1.426 1.444 1.982 2.681-.538.567-.806 1.05-.806 1.447V20c-1.32-.496-2.186-.744-2.6-.744h-1.87z"/>
            <path fill="#598419" stroke="#844C22" d="M11 14.762c.2-1.744.663-3.34 1.387-4.788.557-1.114 1.258-2.017 2.103-2.708a1 1 0 0 1 1.39.122c3.58 4.156 5.557 7.32 5.93 9.493.592 3.436-.329 5.738-1.037 6.558A9.59 9.59 0 0 1 19.01 25l-3.258-2.494c1.163-.89 1.745-1.86 1.745-2.913 0-.937-.848-2.508-2.543-4.713a1 1 0 0 0-1.472-.124c-.216.2-.406.385-.571.556-.35.36-.695.883-1.037 1.57L11 14.761z"/>
            <path fill="#3C5C0D" stroke="#844C22" d="M7.112 27c-.856.354-1.67.717-2.443 1.088-.406.194-.78.392-1.124.595a1 1 0 0 0-.331 1.407c1.923 2.956 3.993 4.781 6.209 5.476 2.42.759 4.28.523 5.577-.708-2.059-1.56-3.503-2.68-4.333-3.358-.83-.678-2.015-2.178-3.555-4.5z"/>
            <path fill="#598419" stroke="#844C22" d="M38 43c-5.167-3.103-9.233-5.236-10.347-6.397-1.113-1.162-2.812-3.696-5.097-7.603l-.592 1.205 1.365 2.488-1.842-.98-.487.98c2.47 1.635 4.13 2.939 4.983 3.91.852.97 4.566 3.42 8.905 6.397M12.047 42.371c1.968 7.237 4.9 11.087 8.795 11.549 4.052.481 6.613-1.208 7.684-5.067 1.202-2.084.119-4.368-3.249-6.85-3.19-2.353-7.388-2.633-12.591-.84a1 1 0 0 0-.64 1.208zM29 50.456c1.916.725 3.935.725 6.057 0C37.179 49.73 38.827 48.578 40 47h-1.92a33.2 33.2 0 0 1-3.58 2.327c-1.326.752-3.01.752-5.05 0L29 50.456z"/>
            <path fill="#598419" stroke="#844C22" d="M30 43.282c.124.243.216.422.277.537 1.274 2.402 3.064 2.115 3.996 2.115h2.712l1.48.599L40 45.934v-1.089l-.78.341-1.709.748c-1.647-2.106-2.955-3.159-3.925-3.159-.97 0-1.603-.592-1.9-1.775h2.587L40 45.186 37.511 48l-.999-1.467h-2.239"/>
            <path fill="#598419" stroke="#844C22" d="M39.455 45l-6.398-7.147c-2.945-.925-4.61-2.7-4.996-5.323-.356-2.426.841-6.4 3.593-11.92a1 1 0 0 1 1.675-.178c5.053 6.307 7.344 10.672 6.875 13.094-.5 2.573-2.187 4.015-5.062 4.327L41 45h-1.545z"/>
            <path fill="#598419" stroke="#844C22" d="M40.735 44.23L55 49.327V51l-13.797-5.252c-.253-.463-.41-.804-.468-1.025-.2-.758-.044-1.461.468-2.11 1.103-1.396 3.3-2.837 3.3-4.347V35c-.745.296-1.269.525-1.57.687-.793.423-1.37.887-1.73 1.39-.85 1.189-1.701 2-.85 3.476.85 1.476 2.43 2.951 4.15 1.476 1.72-1.476 1.41-1.633 1.41-4.33 0-1.8-.47-2.699-1.41-2.699"/>
            <path fill="#40640A" stroke="#844C22" stroke-linecap="round" stroke-linejoin="round" d="M41 46.368L55.138 51 56 49.474 41 45z"/>
            <path fill="#598419" stroke="#844C22" d="M30.158 42.002c-.368.069.025 2.294 0 2.57-.157 1.685 1.464 2.913 2.842 3.3 2.404.673 3-1.462 3-2.558 0-1.096-2.101-1.631-2.791-1.631s-2.684-1.75-3.051-1.681z"/>
            <path fill="#99CA4F" d="M9 23.042c0 .506 4.842 5.722 6.94 6.791 1.398.713 3.225 1.768 5.48 3.167l.58-1.24c-2.34-1.562-4.179-2.787-5.519-3.674C14.471 26.756 9 22.536 9 23.042zM14 20.401v-2.564c0-.88.289-1.827.867-2.837v6L14 20.401zM13 43c1.218 2.199 2.818 3.712 4.8 4.539 2.975 1.24 4.56.694 6.14 1.167 1.053.315 2.263.747 3.628 1.294L28 48.706c-1.604-.756-2.803-1.145-3.596-1.167-1.19-.033-5.73-.182-6.603-1.039-.583-.572-2.183-1.738-4.801-3.5zM34 37c-1.613-1.671-2.25-3.52-1.912-5.545l.006-.033a.577.577 0 0 1 1.143.033c.289 2.707.543 4.555.763 5.545zM31 45c1.57 1.778 2.544 2.37 2.921 1.778.377-.593-.597-1.185-2.921-1.778z"/>
        </g>
    </g>
</svg>
