<svg xmlns="http://www.w3.org/2000/svg" xmlns:xlink="http://www.w3.org/1999/xlink" width="49" height="44" viewBox="0 0 49 44">
    <defs>
        <path id="a" d="M0 0h60v60H0z"/>
    </defs>
    <g fill="none" fill-rule="evenodd" transform="translate(-2 -9)">
        <mask id="b" fill="#fff">
            <use xlink:href="#a"/>
        </mask>
        <g mask="url(#b)">
            <path fill="#AAA038" stroke="#844C22" stroke-linecap="round" stroke-linejoin="round" d="M38.06 26.522l.124 1.996-.588 1.672-.994-.684-1.032 2.654-.993-.747c-.16.84-.361 1.422-.603 1.745-.189.25-.634.529-1.336.834.046-.21-.508-.983-.495-1.7.007-.397.594-.565.59-1.12l-1.584.438c.054-.757.021-1.786.139-2.362.182-.896.56-1.21.896-1.666-.485.237-.77.834-1.876 1.774-.393.335-1.334.705-1.805 1.128l.626-2.107-1.397.873-2.077.533.403-2.041-2.623-.687c.348-.192 1.05-.63 2.104-1.314l-.955-1.528c.6-.542 1.065-.833 1.398-.873.332-.039.97.121 1.914.481l-.849-1.748c.859-.38 1.481-.568 1.866-.565.386.003.964.201 1.736.593-1.18-1.06-1.943-1.8-2.292-2.221-.464-.56-.92-1.289-1.367-2.188.27-.066 1.127-.187 2.57-.362-.564-.676-1.165-1.1-1.573-1.611-.706-.885-1.063-1.692-1.302-2.083l2.017-.291-.877-1.405-.449-2.285c1.136.433 1.904.808 2.304 1.126.4.318.692.786.877 1.405l1.147-1.685c.152.238.875 1.308 1.118 1.79.378.747.342 1.078.941 2.413.79-1.22 1.275-1.938 1.452-2.152.676.937 1.132 1.666 1.367 2.188.289.639.62 1.65.992 3.034.197-.938.399-1.623.606-2.056.207-.433.523-.83.948-1.194l1.199 1.53 1.804-2.805.955 1.527c1.077-.648 1.778-1.086 2.103-1.314 0 .744-.029 1.252-.083 1.523-.064.32-.214.698-.45 1.135l2.012.533c-.62.812-1.082 1.356-1.39 1.632-.307.277-.773.568-1.397.873l2.169.362c-.808.327-1.514 1.047-2.105 1.315-1.048.475-1.749.433-2.117.721.915-.166 2.273.112 4.073.836l-1.087 1.232c.509.252.901-.211 1.268-.041.635.295 1.101 1.141 1.308 1.191-.576.496-1.022.774-1.336.835-.39.075-1 .001-1.833-.223l.237 1.22-1.61.302-1.228-.537-.243 1.456-1.707-.237-1.61-1.068z"/>
            <path stroke="#844C22" stroke-linecap="round" stroke-linejoin="round" d="M5.7 45.207c.729-.958 1.27-.958 1.626 0 .64 1.727-.764 3.173-2.374 2.714-4.171-1.189-.91-6.137 2.817-6.137 3.728 0 7.51 5.462 16.053 5.462 8.542 0 22.575-5.077 25.253-7.856 2.677-2.78-1.756-6.57-5.122-7.52-2.351-.664-4.047-2.036-5.089-4.118"/>
            <g stroke="#844C22">
                <path fill="#DAD472" d="M10.382 46.052c4.785-4.264 7.286-8.427 7.503-12.488.325-6.092 1.656-5.567 3.575-5.95 1.919-.382 3.289 5.48 2.952 7.141a64.528 64.528 0 0 0-.565 3.165c-.73 2.788-1.367 4.547-1.914 5.28-2.683 3.595-5.287 4.479-6.23 6.05-1.849 3.075-5.235 3.061-6.138 1.364-.603-1.132-.33-2.653.817-4.562z"/>
                <path fill="#AC8C4F" d="M14.782 50.312c1.639 2.422 4.649.332 7.49-1.816 2.843-2.147 3.15-2.828 5.264-4.737 2.116-1.908 5.894-4.681 2.26-6.523-3.634-1.843-6.76 2.398-7.993 4.482-1.233 2.084-3.712 3.047-5.757 3.03-2.045-.016-2.903 3.142-1.264 5.564z"/>
            </g>
            <path fill="#AC8C4F" stroke="#844C22" d="M24.049 50.832c-.24-3.091.405-5.256 1.936-6.494 2.296-1.857 5.076-3.218 7.15-4.631C35.206 38.293 39.748 35 41.126 35c1.256 0 3.842 1.332 2.494 4.707-.13.327-4.443 2.99-8.042 6.225-3.6 3.235-4.195 6.068-7.335 6.068-2.093 0-3.492-.39-4.195-1.168z"/>
            <path fill="#DAD472" stroke="#844C22" d="M38.6 43.8c4.62-1.067 7.604-1.067 8.955 0 2.025 1.599 2.025 4.235-.659 5.034-2.684.8-5.896-1.598-7.677-.799-1.78.8-6.219.8-6.219.8l3.935-3.804L38.6 43.8z"/>
            <path fill="#CFC48B" d="M26.49 45.69c-1.49 1.974-1.862 3.355-1.118 4.141.943.995 2.46-2.651 3.232-4.465C28.747 45.03 42 36.636 42 36.272c0-.98-2.711.47-13.923 8.022-.263.177-.792.642-1.588 1.395z"/>
            <g>
                <path stroke="#844C22" stroke-linecap="round" stroke-linejoin="round" d="M20.494 27.515c-1.159-1.107-1.965-2.025-2.416-2.756-.452-.73-.678-1.65-.678-2.759"/>
                <path fill="#FFFBB8" d="M10.433 50c.218.595 1.372.21 1.372-.745s-.06-1.995.811-3.26c.873-1.265 5.19-5.325 5.817-7.315.628-1.99 1.028-3.24 1.34-5.055.31-1.815 1.477-2.48 1.477-3.65s-1.15-1.87-1.79-1.17c-.638.7-1.027 2.28-1.027 5.465-.522 2.235-1.234 4.655-2.84 7.005-1.605 2.35-4.16 3.925-5.16 5.685-1 1.76-.218 2.445 0 3.04z"/>
                <path fill="#CFC48B" d="M15.111 45.685c-.622.327-.778.765-.467 1.315.467.825 2.262.75 2.717 0 .456-.75 1.561-1.38 2.411-1.88.85-.5 2.895-2.625 3.772-3.58.878-.955 3.24-1.79 4.145-2.685.905-.895.567-1.41-.378-1.41s-2.611 1.11-3.189 1.975c-.578.865-2.372 3.78-3.661 4.455-1.289.675-2.722 1.245-3.783 1.245-.708 0-1.23.188-1.567.565z"/>
                <path fill="#C6BC52" d="M28.15 10.44c4.385 7.363 6.76 11.428 7.122 12.195.363.767 1.148 1.91 2.356 3.43-.508-.194-1.137.176-1.89 1.11-1.127 1.4-1.688 3.52-2.216 3.52-.527 0-.527-2.41 0-3.52.528-1.11 1.055-2.725.528-2.725-.528 0-2.261 1.095-4.25 1.615-1.989.52-3.661 1.11-3.178 0 .483-1.11 5.211-1.35 5.503-3.43.292-2.08-1.13-2.95-1.586-4.29-.304-.893-1.1-3.528-2.39-7.905z"/>
            </g>
        </g>
    </g>
</svg>
