<svg xmlns="http://www.w3.org/2000/svg" xmlns:xlink="http://www.w3.org/1999/xlink" width="55" height="48" viewBox="0 0 55 48">
    <defs>
        <path id="a" d="M0 0h60v60H0z"/>
        <path id="c" d="M0 0h52v51h-9.378c-5.289 1.02-10.83 1.53-16.622 1.53S14.696 52.02 9.466 51H0V0z"/>
        <path id="e" d="M20.056.172h-4.16C7.776 3.883 4.731 7.98 2.528 12.462c-3.304 6.722-3.305 15.235 0 17.73 3.306 2.494 23.637 2.326 26.863 0 3.225-2.326 3.045-12.347 0-17.73-2.03-3.59-5.142-7.686-9.335-12.29z"/>
    </defs>
    <g fill="none" fill-rule="evenodd" transform="translate(-4 -7)">
        <mask id="b" fill="#fff">
            <use xlink:href="#a"/>
        </mask>
        <g mask="url(#b)">
            <g transform="translate(-5 1)">
                <mask id="d" fill="#fff">
                    <use xlink:href="#c"/>
                </mask>
                <g mask="url(#d)">
                    <g transform="translate(10 7)">
                        <path fill="#A8E68A" stroke="#AB7055" stroke-linecap="round" stroke-linejoin="round" d="M15 19.737a22.494 22.494 0 0 0-3.372-4.128C10.606 14.617 9.063 13.748 7 13a19.102 19.102 0 0 0 1.374 3.442c.595 1.167 1.68 2.686 3.254 4.558a19.68 19.68 0 0 1 1.645-.79A6.589 6.589 0 0 1 15 19.738z"/>
                        <g stroke="#AB7055">
                            <path fill="#9DE37A" stroke-linecap="round" stroke-linejoin="round" d="M13.62 21.17c-.802-4.38-1.294-7.18-1.478-8.402-.25-1.662-.669-4.616-1.256-8.863 2.526 3.935 4.108 6.494 4.746 7.676.638 1.183 1.157 2.545 1.555 4.086a56.634 56.634 0 0 0 2.188-2.899c.559-.797 1.988-2.255 4.289-4.373-.705 4.155-1.27 6.684-1.695 7.585-.425.901-1.071 2.631-1.938 5.19-1.58-.774-2.792-1.16-3.64-1.16-.847 0-1.77.386-2.772 1.16z"/>
                            <path fill="#518B33" stroke-linecap="round" stroke-linejoin="round" d="M8.769 18.06c-1.084-1.052-2.415-1.321-3.993-.807-1.578.515-2.503 1.662-2.776 3.44 1.01-1.635 2.537-1.92 4.579-.856S9.525 21.956 9.29 23L11 21.35l-2.231-3.29z"/>
                            <path fill="#88CE66" stroke-linecap="round" stroke-linejoin="round" d="M22.153 21c.747-3.116 1.434-4.953 2.061-5.511.628-.558 1.557-1.305 2.786-2.24-.797-.166-1.725-.249-2.786-.249-1.59 0-2.831 1.221-4.139 2.765-.872 1.029-1.23 2.158-1.075 3.389.519.051 1.06.238 1.624.561A5.8 5.8 0 0 1 22.154 21z"/>
                            <path fill="#71B250" stroke-linecap="round" stroke-linejoin="round" d="M9.913 13.975c-1.484-1.51-2.227-3.328-2.227-5.455 0-2.128-1.318-3.635-3.956-4.52 2.204-.467 3.99.14 5.356 1.82 1.366 1.68 2.25 3.24 2.65 4.68l.594 5.59-2.417-2.115z"/>
                            <path fill="#88CE66" stroke-linecap="round" stroke-linejoin="round" d="M13.592 7.955c1.339-2.768 1.659-4.594.96-5.476-.698-.883-1.882-1.104-3.552-.665C13.167 0 15.112-.453 16.835.454c2.584 1.36 2.34 4.757 1.857 7.035-.321 1.519-.803 4.176-1.445 7.971-.602-1.954-1.183-3.394-1.744-4.32a463.593 463.593 0 0 1-1.911-3.185z"/>
                            <path fill="#71B250" stroke-linecap="round" stroke-linejoin="round" d="M18.042 6.784c.311-.94 1.93-3.517 4.586-3.768 1.77-.167 2.895.959 3.372 3.378-1.29-1.478-2.413-1.797-3.372-.956-.958.84-1.063 2.172-.314 3.997-1.197 1.134-2.141 2.15-2.834 3.05a60.44 60.44 0 0 1-2.227 2.72c.318-4.988.581-7.795.789-8.421z"/>
                            <path fill="#A8E68A" d="M19 20.047c2.07-1.676 3.776-2.323 5.119-1.94 1.343.381 1.967 1.028 1.872 1.94-1.501-.627-2.52-.504-3.06.367a9.685 9.685 0 0 0-.172.29c-.28.49-.537.922-.774 1.296-.36-.347-.766-.692-1.217-1.034-.452-.343-1.04-.65-1.768-.92z"/>
                        </g>
                        <g transform="translate(0 19)">
                            <mask id="f" fill="#fff">
                                <use xlink:href="#e"/>
                            </mask>
                            <use fill="#FFE166" stroke="#AB7055" xlink:href="#e"/>
                            <g mask="url(#f)">
                                <g stroke="#AB7055">
                                    <path d="M10.647-23.775l49.373 76.22-10.63 8.748-50.416-76.987z"/>
                                    <path d="M22.068-32l49.374 76.22-10.63 8.748L10.395-24.02zM-1.59-17.045l49.373 76.22-10.63 8.748-50.416-76.987z"/>
                                    <path d="M-15.459-13.306l49.374 76.22-10.63 8.748-50.416-76.988z"/>
                                    <path d="M-29.327-8.82L20.046 67.4l-10.63 8.749L-41-.84z"/>
                                </g>
                                <path stroke="#A67F60" d="M20.353-23.775l-49.373 76.22 10.63 8.748 50.416-76.987z"/>
                                <path stroke="#A67F60" d="M8.932-32l-49.374 76.22 10.63 8.748L20.605-24.02zM32.59-17.045l-49.373 76.22 10.63 8.748L44.263-9.064z"/>
                                <path stroke="#A67F60" d="M46.459-13.306l-49.374 76.22 10.63 8.748L58.132-5.326z"/>
                                <path stroke="#A67F60" d="M60.327-8.82L10.954 67.4l10.63 8.749L72-.84z"/>
                                <path fill="#E07F27" d="M7.653-3.442L-.13 7.826l7.783 12.062L15.06 8.223 7.41-3.442 11.094 7.11a3 3 0 0 1-.267 2.544l-1.342 2.212a2.307 2.307 0 0 1-3.996-.089L3.994 9.045a3 3 0 0 1-.169-2.515l3.828-9.972z" opacity=".53"/>
                                <path fill="#B76E2C" d="M23.883-3.519L16.258 8.347l7.822 11.394 7.427-12.13-7.427-11.13 3.597 9.854a3 3 0 0 1-.186 2.47l-1.43 2.611a2.46 2.46 0 0 1-4.223.156l-1.426-2.2a3 3 0 0 1-.297-2.67l3.768-10.22z"/>
                                <path fill="#B76E2C" d="M32.21 9.043l-7.625 11.865 7.822 11.394 7.427-12.13-7.427-11.13 4.063 11.13-4.063 7.422-3.668-5.662a3 3 0 0 1-.297-2.668l3.767-10.221z" opacity=".608"/>
                                <path fill="#D67A26" d="M15.456 9.043L7.832 20.908l7.822 11.394 7.285-11.63-7.285-11.63L19.35 19.33a3 3 0 0 1-.255 2.565l-1.188 1.967a23 23 0 0 1-.336.54l-1.007 1.568a1.406 1.406 0 0 1-2.364.004l-2.584-3.994a3 3 0 0 1-.263-2.75l4.102-10.186z" opacity=".53"/>
                                <path fill="#B76E2C" d="M-1.155 9.043l-7.469 11.592 8.116 11.593 6.992-11.556-7.442-11.63 4.124 10.154a3 3 0 0 1-.254 2.748l-3.42 5.335-4.66-6.607 4.013-11.63z"/>
                                <path fill="#B76E2C" d="M7.4 21.907L-.068 33.499l8.116 11.593 6.991-11.556-7.441-11.63L12.307 33.5l-4.26 6.644-4.66-6.607z" opacity=".508"/>
                                <path fill="#B76E2C" d="M24.154 21.907l-7.47 11.592 8.117 11.593 6.991-11.556-7.441-11.63L29.06 33.5l-4.26 6.644-4.66-6.607z" opacity=".224"/>
                            </g>
                        </g>
                        <circle cx="8" cy="27" r="1" fill="#B76E2C"/>
                        <circle cx="15" cy="39" r="1" fill="#B76E2C"/>
                        <circle cx="24" cy="28" r="1" fill="#B76E2C"/>
                        <circle cx="31" cy="39" r="1" fill="#B76E2C"/>
                        <circle cx="1" cy="40" r="1" fill="#B76E2C"/>
                    </g>
                    <path fill="#B76E2C" d="M10.2 51.24c2.849-1.747 5.078-2.66 6.689-2.74 3.766-.185 6.33 4.721 9.207 4.48 2.06-.174 5.915-10.005 5.915-6.42 0 3.393.204-1.543 1.611-6.84.43-1.62 1.39-3.632 2.878-6.04 2.926 4.087 4.555 7.185 4.889 9.295.5 3.165 1.9 11.765-2.606 13.77-4.505 2.005-24.76 1.75-26.672 0-1.274-1.167-1.911-3.002-1.911-5.505z" opacity=".342"/>
                    <path fill="#FAE696" fill-opacity=".575" d="M18.872 31.005c-1.777 1.41-2.797 2.795-3.061 4.155-.254 1.308 2.833 2.06 3.622 1.505.466-.328 1.273-2.958 2.422-7.89l3.49 5.56c-1.448 4.299-2.222 7.09-2.323 8.375-.163 2.085-1.194 3.805 2.628 3.805s-.545-8.89 2.878-11.7c2.281-1.873 3.942-3.143 4.983-3.81L29.85 26.68h-3.867z"/>
                    <path fill="#B76E2C" d="M17.694 45.76v-6.15c1.423-.687 2.36-1.517 2.811-2.49.452-.974.678-2.514.678-4.62l1.311-1.71 2.2 4.09-7 10.88z" opacity=".45"/>
                </g>
            </g>
            <g transform="translate(26 22)">
                <path fill="#AF6F47" d="M12.96 3.716L16.177.5l3.216 3.216 4.379-1.338L25.1 6.726l4.47.788-.796 4.516 3.579 2.796-2.805 3.59 1.859 4.176-4.16 1.853-.237 4.526-4.587-.24-2.335 3.886-3.912-2.35-3.912 2.35L9.93 28.73l-4.587.24-.237-4.525-4.16-1.853 1.86-4.175L0 14.827l3.579-2.797-.797-4.516 4.47-.788 1.33-4.348 4.378 1.338zm.825 3.38l-.983 3.218-3.248-.993.59 3.348-3.308.584 2.085 2.669-2.662 2.08 3.078 1.37-1.38 3.098 3.4-.179.176 3.351 2.907-1.746 1.737 2.891 1.737-2.891 2.907 1.746.176-3.35 3.4.178-1.38-3.099 3.078-1.37-2.662-2.08 2.085-2.668-3.309-.584.59-3.348-3.247.993-.983-3.218-2.392 2.392-2.392-2.392z"/>
                <circle cx="16" cy="17" r="14" fill="#FFD83A" stroke="#AF6F47"/>
                <path fill="#F2E9C4" d="M14.813 11.114l1.364-1.364 1.364 1.364 1.856-.568.564 1.844 1.895.334-.338 1.914 1.518 1.186-1.19 1.522.789 1.77-1.764.786-.1 1.919-1.946-.102-.99 1.648-1.658-.997-1.659.997-.99-1.648-1.944.102-.1-1.92-1.765-.784.789-1.77-1.19-1.523 1.518-1.186-.338-1.914 1.895-.334.564-1.844 1.856.568zm.35 1.433l-.417 1.364-1.377-.421.25 1.42-1.402.247.884 1.131-1.129.882 1.305.58-.585 1.314 1.442-.075.074 1.42 1.232-.74.737 1.226.737-1.226 1.232.74.074-1.42 1.442.075-.585-1.313 1.305-.581-1.129-.882.884-1.131-1.403-.247.25-1.42-1.376.42-.417-1.363-1.014 1.014-1.014-1.014z"/>
                <path fill="#F7E8AD" d="M13.624 6.365l2.553-2.553 2.553 2.553 3.475-1.063 1.056 3.452 3.548.625-.632 3.585 2.84 2.22-2.226 2.85 1.476 3.314-3.302 1.47-.189 3.593-3.64-.191-1.854 3.085-3.105-1.866-3.105 1.866-1.854-3.085-3.64.19-.189-3.592-3.302-1.47 1.476-3.315-2.227-2.85 2.84-2.219-.631-3.585 3.548-.625 1.055-3.452 3.476 1.063zm.655 2.683l-.781 2.553-2.578-.788.469 2.658-2.627.464 1.655 2.118-2.113 1.65 2.443 1.088-1.095 2.46 2.7-.142.139 2.66 2.307-1.386 1.379 2.295 1.38-2.295 2.306 1.386.14-2.66 2.699.141-1.095-2.459 2.443-1.087-2.113-1.651 1.655-2.118-2.627-.464.469-2.658-2.578.788-.78-2.553-1.899 1.898-1.898-1.898z" opacity=".503"/>
            </g>
        </g>
    </g>
</svg>
