<svg xmlns="http://www.w3.org/2000/svg" xmlns:xlink="http://www.w3.org/1999/xlink" width="49" height="36" viewBox="0 0 49 36">
    <defs>
        <path id="a" d="M0 0h60v60H0z"/>
    </defs>
    <g fill="none" fill-rule="evenodd" transform="translate(-5 -15)">
        <mask id="b" fill="#fff">
            <use xlink:href="#a"/>
        </mask>
        <g mask="url(#b)">
            <g transform="translate(5 16)">
                <path fill="#F9D170" stroke="#844C22" d="M6.51 29.192C2.99 27.043 1.053 23.767.7 19.363c-.326-4.081.9-7.868 3.675-11.36C6.705 3.853 14.838.791 24.514.791c9.363 0 17.283 2.869 19.896 6.815 2.38 2.374 3.57 5.848 3.57 10.421 0 4.78-1.452 8.162-4.353 10.144C40.434 31.6 33.077 34 24.514 34c-7.687 0-14.4-1.933-18.003-4.808z"/>
                <ellipse cx="24.377" cy="9.488" fill="#FDF6B9" rx="19.733" ry="9.488"/>
                <path stroke="#844C22" d="M44.1 7.28l-1.53-1.473C39.58 2.395 32.56 0 24.377 0 15.476 0 7.95 2.834 5.492 6.727L4.284 8.221"/>
                <path fill="#E7B53E" d="M33.437 32.563c3.477-2.215 5.632-4.719 6.465-7.51.834-2.792.766-6.011-.203-9.659 1.881-1.339 3.097-2.547 3.648-3.625.55-1.078.758-2.542.621-4.394 2.79 3.55 3.921 7.873 3.394 12.97-.542 3.743-1.372 5.942-5.982 9.146-2.208 1.537-4.855 2.56-7.943 3.072zM10.824 31.062c-2.586-1.398-4.376-3.737-5.37-7.019-.993-3.281-.2-6.383 2.38-9.305-.378-.072-.99-.597-1.837-1.574-.846-.977-1.42-2.436-1.723-4.376-2.632 3.961-3.606 7.916-2.922 11.865.509 2.802 1.263 5.364 5.769 8.56 1.745 1.088 2.98 1.704 3.703 1.849z"/>
                <path fill="#FDFBE8" d="M10.109 3.487c2.623.519 4.434 1.179 5.43 1.98 3.616 2.907 5.455 7.025 5.653 8.22.42 2.537 5.767.02 7.811 1.156 2.044 1.136 4.118 1.307 5.635.654 1.517-.654 4.79-.746 3.698 0-1.093.746-4.2 1.653-6.872 2.167-5.125.984-11.845.843-16.17-.444C5.76 14.384 5.361 11.39 5.14 8.91c.28-1.972 1.254-2.798 2.116-3.653.574-.57 1.525-1.16 2.852-1.77z"/>
                <ellipse cx="15.422" cy="24.846" fill="#FDFBE8" opacity=".539" rx="3.427" ry="2.179" transform="rotate(8 15.422 24.846)"/>
            </g>
        </g>
    </g>
</svg>
