<?xml version="1.0" encoding="UTF-8"?>
<svg width="53px" height="45px" viewBox="0 0 53 45" version="1.1" xmlns="http://www.w3.org/2000/svg" xmlns:xlink="http://www.w3.org/1999/xlink">
    <!-- Generator: Sketch 52 (66869) - http://www.bohemiancoding.com/sketch -->
    <title> smoked_sausage</title>
    <desc>Created with Sketch.</desc>
    <g id="-smoked_sausage" stroke="none" stroke-width="1" fill="none" fill-rule="evenodd">
        <g id="Group-2" transform="translate(-1.000000, 3.000000)">
            <g id="Group" transform="translate(20.706107, 23.095492) rotate(-36.000000) translate(-20.706107, -23.095492) translate(4.706107, 11.095492)">
                <path d="M5.45454545,1.02826287 C-0.221117424,3.11135685 -1.24881629,6.83940813 2.37144886,12.2124167 C7.80184659,20.2719296 15.834517,23.7792969 23.5916193,23.7792969 C31.3487216,23.7792969 31.7045455,19.543457 30.7997159,16.1908318 C29.8948864,12.8382066 28.3271151,9.82235179 21.2478693,4.88209444 C16.5283721,1.58858954 11.2639308,0.303979013 5.45454545,1.02826287 Z" id="Path-187" stroke="#844C22" fill="#D14E50"></path>
                <path d="M10.1818182,14.440918 C11.3868031,14.440918 9.33735795,12.2476869 9.33735795,11.0294118 C9.33735795,9.81113658 9.20498491,8.82352941 8,8.82352941 C6.79501509,8.82352941 5.81818182,9.81113658 5.81818182,11.0294118 C5.81818182,12.2476869 8.97683327,14.440918 10.1818182,14.440918 Z" id="Oval" fill="#FDECEC"></path>
                <path d="M7.56143466,7.1591027 C8.76641957,7.1591027 9.71910511,7.2744367 9.71910511,6.05616152 C9.71910511,4.83788634 7.75043945,4.95322034 6.54545455,4.95322034 C5.34046964,4.95322034 4.36363636,3.73494516 4.36363636,4.95322034 C4.36363636,6.17149553 6.35644975,7.1591027 7.56143466,7.1591027 Z" id="Oval-2" fill="#FFD3D1"></path>
                <path d="M14.9563394,12.765763 C15.6953819,12.765763 14.4384143,11.4206084 14.4384143,10.6734147 C14.4384143,9.92622093 14.3572271,9.32050074 13.6181846,9.32050074 C12.8791421,9.32050074 12.2800297,9.92622093 12.2800297,10.6734147 C12.2800297,11.4206084 14.2172969,12.765763 14.9563394,12.765763 Z" id="Oval" fill="#FFD3D1" transform="translate(13.734575, 11.043132) rotate(-151.000000) translate(-13.734575, -11.043132) "></path>
                <path d="M15.2535812,7.46861521 C16.4585662,7.46861521 17.4353994,7.13941282 17.4353994,6.73332109 C17.4353994,6.32722936 16.4585662,5.99802697 15.2535812,5.99802697 C14.0485963,5.99802697 13.774609,6.10680296 13.774609,6.51289469 C13.774609,6.91898641 14.0485963,7.46861521 15.2535812,7.46861521 Z" id="Oval-3" fill="#FFD3D1" transform="translate(15.605004, 6.733321) rotate(19.000000) translate(-15.605004, -6.733321) "></path>
                <path d="M21.3877841,13.9336081 C20.5877131,14.8451861 21.0646307,14.9557675 21.7595881,15.9190458 C22.4545455,16.8823242 23.3512074,16.9555664 23.8441051,16.4335363 C24.3370028,15.9115062 24.5445973,15.080351 23.8441051,14.53642 C23.143613,13.9924891 22.1878551,13.0220301 21.3877841,13.9336081 Z" id="Path-188" fill="#FFD3D1"></path>
            </g>
            <g id="Group" transform="translate(9.000000, 9.000000)">
                <path d="M5.45454545,1.02826287 C-0.221117424,3.11135685 -1.24881629,6.83940813 2.37144886,12.2124167 C7.80184659,20.2719296 15.834517,23.7792969 23.5916193,23.7792969 C31.3487216,23.7792969 31.7045455,19.543457 30.7997159,16.1908318 C29.8948864,12.8382066 28.3271151,9.82235179 21.2478693,4.88209444 C16.5283721,1.58858954 11.2639308,0.303979013 5.45454545,1.02826287 Z" id="Path-187" stroke="#844C22" fill="#D14E50"></path>
                <path d="M10.1818182,14.440918 C11.3868031,14.440918 9.33735795,12.2476869 9.33735795,11.0294118 C9.33735795,9.81113658 9.20498491,8.82352941 8,8.82352941 C6.79501509,8.82352941 5.81818182,9.81113658 5.81818182,11.0294118 C5.81818182,12.2476869 8.97683327,14.440918 10.1818182,14.440918 Z" id="Oval" fill="#FDECEC"></path>
                <path d="M7.56143466,7.1591027 C8.76641957,7.1591027 9.71910511,7.2744367 9.71910511,6.05616152 C9.71910511,4.83788634 7.75043945,4.95322034 6.54545455,4.95322034 C5.34046964,4.95322034 4.36363636,3.73494516 4.36363636,4.95322034 C4.36363636,6.17149553 6.35644975,7.1591027 7.56143466,7.1591027 Z" id="Oval-2" fill="#FFD3D1"></path>
                <path d="M14.9563394,12.765763 C15.6953819,12.765763 14.4384143,11.4206084 14.4384143,10.6734147 C14.4384143,9.92622093 14.3572271,9.32050074 13.6181846,9.32050074 C12.8791421,9.32050074 12.2800297,9.92622093 12.2800297,10.6734147 C12.2800297,11.4206084 14.2172969,12.765763 14.9563394,12.765763 Z" id="Oval" fill="#FFD3D1" transform="translate(13.734575, 11.043132) rotate(-151.000000) translate(-13.734575, -11.043132) "></path>
                <path d="M15.2535812,7.46861521 C16.4585662,7.46861521 17.4353994,7.13941282 17.4353994,6.73332109 C17.4353994,6.32722936 16.4585662,5.99802697 15.2535812,5.99802697 C14.0485963,5.99802697 13.774609,6.10680296 13.774609,6.51289469 C13.774609,6.91898641 14.0485963,7.46861521 15.2535812,7.46861521 Z" id="Oval-3" fill="#FFD3D1" transform="translate(15.605004, 6.733321) rotate(19.000000) translate(-15.605004, -6.733321) "></path>
                <path d="M21.3877841,13.9336081 C20.5877131,14.8451861 21.0646307,14.9557675 21.7595881,15.9190458 C22.4545455,16.8823242 23.3512074,16.9555664 23.8441051,16.4335363 C24.3370028,15.9115062 24.5445973,15.080351 23.8441051,14.53642 C23.143613,13.9924891 22.1878551,13.0220301 21.3877841,13.9336081 Z" id="Path-188" fill="#FFD3D1"></path>
            </g>
            <g id="Group" transform="translate(33.120961, 19.014852) rotate(14.000000) translate(-33.120961, -19.014852) translate(17.120961, 7.014852)">
                <path d="M5.45454545,1.02826287 C-0.221117424,3.11135685 -1.24881629,6.83940813 2.37144886,12.2124167 C7.80184659,20.2719296 15.834517,23.7792969 23.5916193,23.7792969 C31.3487216,23.7792969 31.7045455,19.543457 30.7997159,16.1908318 C29.8948864,12.8382066 28.3271151,9.82235179 21.2478693,4.88209444 C16.5283721,1.58858954 11.2639308,0.303979013 5.45454545,1.02826287 Z" id="Path-187" stroke="#844C22" fill="#D14E50"></path>
                <path d="M10.1818182,14.440918 C11.3868031,14.440918 9.33735795,12.2476869 9.33735795,11.0294118 C9.33735795,9.81113658 9.20498491,8.82352941 8,8.82352941 C6.79501509,8.82352941 5.81818182,9.81113658 5.81818182,11.0294118 C5.81818182,12.2476869 8.97683327,14.440918 10.1818182,14.440918 Z" id="Oval" fill="#FDECEC"></path>
                <path d="M7.56143466,7.1591027 C8.76641957,7.1591027 9.71910511,7.2744367 9.71910511,6.05616152 C9.71910511,4.83788634 7.75043945,4.95322034 6.54545455,4.95322034 C5.34046964,4.95322034 4.36363636,3.73494516 4.36363636,4.95322034 C4.36363636,6.17149553 6.35644975,7.1591027 7.56143466,7.1591027 Z" id="Oval-2" fill="#FFD3D1"></path>
                <path d="M14.9563394,12.765763 C15.6953819,12.765763 14.4384143,11.4206084 14.4384143,10.6734147 C14.4384143,9.92622093 14.3572271,9.32050074 13.6181846,9.32050074 C12.8791421,9.32050074 12.2800297,9.92622093 12.2800297,10.6734147 C12.2800297,11.4206084 14.2172969,12.765763 14.9563394,12.765763 Z" id="Oval" fill="#FFD3D1" transform="translate(13.734575, 11.043132) rotate(-151.000000) translate(-13.734575, -11.043132) "></path>
                <path d="M15.2535812,7.46861521 C16.4585662,7.46861521 17.4353994,7.13941282 17.4353994,6.73332109 C17.4353994,6.32722936 16.4585662,5.99802697 15.2535812,5.99802697 C14.0485963,5.99802697 13.774609,6.10680296 13.774609,6.51289469 C13.774609,6.91898641 14.0485963,7.46861521 15.2535812,7.46861521 Z" id="Oval-3" fill="#FFD3D1" transform="translate(15.605004, 6.733321) rotate(19.000000) translate(-15.605004, -6.733321) "></path>
                <path d="M21.3877841,13.9336081 C20.5877131,14.8451861 21.0646307,14.9557675 21.7595881,15.9190458 C22.4545455,16.8823242 23.3512074,16.9555664 23.8441051,16.4335363 C24.3370028,15.9115062 24.5445973,15.080351 23.8441051,14.53642 C23.143613,13.9924891 22.1878551,13.0220301 21.3877841,13.9336081 Z" id="Path-188" fill="#FFD3D1"></path>
            </g>
            <g id="Group" transform="translate(39.203368, 18.043227) rotate(24.000000) translate(-39.203368, -18.043227) translate(23.203368, 6.043227)">
                <path d="M5.45454545,1.02826287 C-0.221117424,3.11135685 -1.24881629,6.83940813 2.37144886,12.2124167 C7.80184659,20.2719296 15.834517,23.7792969 23.5916193,23.7792969 C31.3487216,23.7792969 31.7045455,19.543457 30.7997159,16.1908318 C29.8948864,12.8382066 28.3271151,9.82235179 21.2478693,4.88209444 C16.5283721,1.58858954 11.2639308,0.303979013 5.45454545,1.02826287 Z" id="Path-187" stroke="#844C22" fill="#D14E50"></path>
                <path d="M10.1818182,14.440918 C11.3868031,14.440918 9.33735795,12.2476869 9.33735795,11.0294118 C9.33735795,9.81113658 9.20498491,8.82352941 8,8.82352941 C6.79501509,8.82352941 5.81818182,9.81113658 5.81818182,11.0294118 C5.81818182,12.2476869 8.97683327,14.440918 10.1818182,14.440918 Z" id="Oval" fill="#FCFCFC"></path>
                <path d="M7.56143466,7.1591027 C8.76641957,7.1591027 9.71910511,7.2744367 9.71910511,6.05616152 C9.71910511,4.83788634 7.75043945,4.95322034 6.54545455,4.95322034 C5.34046964,4.95322034 4.36363636,3.73494516 4.36363636,4.95322034 C4.36363636,6.17149553 6.35644975,7.1591027 7.56143466,7.1591027 Z" id="Oval-2" fill="#FDEBEA"></path>
                <path d="M14.9563394,12.765763 C15.6953819,12.765763 14.4384143,11.4206084 14.4384143,10.6734147 C14.4384143,9.92622093 14.3572271,9.32050074 13.6181846,9.32050074 C12.8791421,9.32050074 12.2800297,9.92622093 12.2800297,10.6734147 C12.2800297,11.4206084 14.2172969,12.765763 14.9563394,12.765763 Z" id="Oval" fill="#FCECEC" transform="translate(13.734575, 11.043132) rotate(-151.000000) translate(-13.734575, -11.043132) "></path>
                <path d="M15.2535812,7.46861521 C16.4585662,7.46861521 17.4353994,7.13941282 17.4353994,6.73332109 C17.4353994,6.32722936 16.4585662,5.99802697 15.2535812,5.99802697 C14.0485963,5.99802697 13.774609,6.10680296 13.774609,6.51289469 C13.774609,6.91898641 14.0485963,7.46861521 15.2535812,7.46861521 Z" id="Oval-3" fill="#FBE8E7" transform="translate(15.605004, 6.733321) rotate(19.000000) translate(-15.605004, -6.733321) "></path>
                <path d="M21.3877841,13.9336081 C20.5877131,14.8451861 21.0646307,14.9557675 21.7595881,15.9190458 C22.4545455,16.8823242 23.3512074,16.9555664 23.8441051,16.4335363 C24.3370028,15.9115062 24.5445973,15.080351 23.8441051,14.53642 C23.143613,13.9924891 22.1878551,13.0220301 21.3877841,13.9336081 Z" id="Path-188" fill="#FBE1E0"></path>
            </g>
        </g>
    </g>
</svg>