<svg xmlns="http://www.w3.org/2000/svg" xmlns:xlink="http://www.w3.org/1999/xlink" width="53" height="45" viewBox="0 0 53 45">
    <defs>
        <path id="a" d="M0 0h59v59H0z"/>
    </defs>
    <g fill="none" fill-rule="evenodd" transform="translate(-1 -8)">
        <mask id="b" fill="#fff">
            <use xlink:href="#a"/>
        </mask>
        <g mask="url(#b)">
            <path fill="#6B8102" stroke="#844C22" d="M37.094 16.162c.42-1.524 1.453-2.486 3.1-2.886 2.47-.6 3.207 1.164 4.735 1.443 1.529.28 2.626.508 3.465 1.443.56.624.84 1.159.84 1.605 1.163-.134 2.1.649 2.811 2.35 1.067 2.55.995 5.974.498 8.775-.498 2.801-2.02 7.84-4.149 9.573-1.418 1.155-3.255 2.172-5.509 3.05-1.555 1.865-3.589 2.797-6.102 2.797-2.514 0-4.356-.699-5.527-2.095L29.6 40.4c-1.107.563-2.228.563-3.363 0-1.702-.846-3.393-4.507-3.956-8.85-.376-2.895-.376-6.063 0-9.504-.32-1.563.181-2.872 1.504-3.928 1.984-1.584 4.562-3.3 6.774-3.705 2.212-.403 4.448-.281 5.335.734.592.677.992 1.015 1.2 1.015z"/>
            <path fill="#354802" d="M27.513 21.763c2.698-.644.69 2.943 2.11 2.645 1.421-.298 3.411-1.72 4.329-.86.917.86-.06 1.797.437 2.786.498.988-.102 2.338.48 1.663.581-.675 1.156-4.028 2.834-3.589 1.679.44 1.535 1.805.768 4.24-.768 2.434-2.075 5.463 0 7.584 2.074 2.121 1.277 7.174 0 7.461-1.278.287-3.176.446-5.748-.856s-3.165-5.134-4.454-8.956c-1.29-3.821-3.453-11.475-.756-12.118zM42.5 41.03c1.183-2.487 1.996-4.746 2.44-6.777.443-2.03.781-3.851 1.013-5.464l.276-3.71c1.922 1.65 2.976 2.727 3.16 3.236 1.097 3.019.55 5.79-1.152 7.613-1.703 1.823-3.235 3.554-3.967 4.303-.488.5-1.078.766-1.77.8z"/>
            <path fill="#4C6600" d="M40.197 23.825c.688.464 1.465.464 2.332 0 1.301-.696 2.326-.099 3.225.174.9.273.616 1.852.616 1.474 0-.093 1.254.555 2.583 3.205.31.617.66 1.921 1.05 3.912-.525-7.084-1.197-10.826-2.018-11.226-2.44-1.189-.935 0-1.954 0-.68 0-.772-.33-.277-.989a3.858 3.858 0 0 0 1.84-.563c.852-.516 1.691-.516.678-1.398-1.013-.882-2.038 1.7-2.793.882-.756-.818-1.271-1.493-1.271-1.786 0-.292-1.032.022-1.679.904s-.845.882-1.588.882c-.496 0-1.483-.483-2.962-1.45a30.034 30.034 0 0 0-.85 1.45c-.277.516 2.157 1.643 2.769 1.08.611-.564 1.648.826 2.14.413.491-.414 1.199-1.54 1.876-.977.677.563-.294 2.084 0 2.084s-1.061.92-2.254 1.26c-.795.226-1.283.45-1.463.669z"/>
            <path fill="#4C6600" d="M36.793 23.703c-1.939-.442-1.864-.925-2.817-1.403-.954-.479-3.71.593-4.183-.305-.316-.599-.06-.898.767-.898-.743-.181-.999-.498-.767-.952.348-.68 1.804.128 1.804-.68s-1.073-.808-1.804-.808c-.731 0-1.613.808-2.106 1.488-.328.454-.81 2.072-1.444 4.854l-.317-5.534c.763-1.088 1.537-1.937 2.325-2.546 1.18-.915 1.776.515 3.346 0 1.57-.516 3.717-.99 4.442 0 .726.988.815 1.738 1.51 1.738.696 0 .732-1.738 3.05-1.738 2.319 0 5.57 2.546 4.383 2.546-.791 0-.638 1.26.461 3.78-1.371.481-2.548.768-3.53.862-1.474.14-3.18.037-5.12-.404z"/>
            <path fill="#43580A" d="M36.5 19.323c-.276.33-1.042.494-2.297.494-1.882 0-2.889.24-2.889.983 0 .745 1.595 1.5 2.89 1.5.65 0 1.503.644 2.802.946 1.289.299 3.022.256 3.858 0 1.678-.516 2.99-.43 2.99-.946s.445-2.647 0-2.977c-.443-.33-1.803.069-3.806-.33-1.335-.265-2.518-.156-3.548.33z"/>
            <path fill="#AFBA56" d="M30.545 21.186c-.631-.45-.79-.847-.473-1.19.473-.516 2.206-.134 1.768-.936-.437-.803-3.297-1.297-4.028.414-.073.171-1.437-.725-2.637-.414-1.43.37-2.674 2.965-2.733 3.141-.11.332.937-.27 2.733-.436.399-.037 1.034.109 1.905.436.848-.531 1.409-.531 1.685 0 .413.797-.48 1.877.413 2.158.894.282 3.484-1.552 4.455-.776.97.776 0 2.418 0 3.242 0 .824.365 1.802.959 1.802.593 0 1.738-5.209 3.123-4.268 1.385.941 2.434 1.919 4.844.856 1.606-.709 2.785-.54 3.538.505.128-1.814-.396-2.722-1.57-2.722-1.453 0-1.93.98-2.614 1.005-.722.025-1.682-1.243-2.189-1.005-1.605.757-2.235 2.219-2.758 1.946-.846-.442-.264-2.01-2.374-2.376a13.728 13.728 0 0 1-4.047-1.382z"/>
            <path fill="#9CB92C" stroke="#844C22" stroke-linecap="round" stroke-linejoin="round" d="M32.599 20.056l3.824-1.202c-.48-2.671-1.347-4.528-2.602-5.57-1.882-1.563-5.347-.255-5.347-1.563 0-1.307 1.373-3.592 2.674-2.562.867.688 2.07 1.357 3.609 2.01 1.75.894 3.073 2.124 3.968 3.688s1.383 2.897 1.463 3.997c1.599.27 2.63.67 3.093 1.202.464.531.464 1.2 0 2.008h-3.093c-1.68 0-1.69.66-2.494.66-.654 0-.75-.745-1.816-1.212a735.2 735.2 0 0 1-3.28-1.456z"/>
            <g>
                <path fill="#B8CC53" stroke="#844C22" d="M14.788 29.498c1.21-2.299 1.097-5.603 3.414-7.136 1.67-1.107 3.789-.629 6.353 1.434 7.877 7.966 10.831 13.986 8.864 18.06-2.12 8.616-4.352 7.115-7.95 8.04-3.599.925-2.185 2.1-7.24 2.096-5.057-.005-9.916-4.598-11.698-6.515C4.75 43.56 2.98 40.953 2.51 38.458c-.47-2.495-.89-1.403-.005-4.728.76-2.853 5.518-1.817 8.226-1.943l.16-.149c-.491-.889-.789-2.158-.894-3.806-.105-1.649.283-3.25 1.163-4.804.84-1.262 1.418-2.371 1.732-3.33.47-1.436 2.658-.35 3.313.66.656 1.01-2.63 1.708-3.275 3.842-.43 1.423-.157 3.284.818 5.582l1.04-.284z"/>
                <path fill="#667303" d="M12.4 34.347c-4.476-.662-6.926-.276-7.353 1.157-.64 2.15 5.362 11.717 10.113 13.427 2.839 1.021 4.038 1.78 5.626 0 2.706-3.035 1.1-4.991 1.96-5.673 1.29-1.021 6.789 1.165 8.088-1.733 1.3-2.898-5.402-13.2-8.087-14.086-2.686-.886-4.748-.497-4.748 1.77s-.921 3.98-1.88 5.138c-.64.771-1.88.771-3.72 0z"/>
                <path fill="#698306" d="M24 50c.366-2.427.87-3.95 1.512-4.566.963-.925 1.906-.216 3.77-.925C30.525 44.037 31.764 43.2 33 42c-1.132 3.805-2.371 5.94-3.718 6.406-2.02.698-3.77.698-3.77.698L24 50z"/>
                <path fill="#FFFFE0" d="M11.556 28.253V25c-.41 2.414-.593 3.771-.55 4.073.185 1.306 1.263 2.27 1.54 3.468.675 2.94.988 1.299 0 3.819-.99 2.52 3.618 7.532 8.103 4.894 4.484-2.637 4.142-6.447.9-8.713-3.244-2.265-3.55.88-5.671 0-1.415-.586-2.855-2.015-4.322-4.288z"/>
                <path fill="#F2D698" d="M11.811 34.23v3.885c0 1.332 3 4.832 7.264 3.686 2.843-.765 4.463-2.197 4.858-4.297-2.505 3.143-5.175 3.982-8.011 2.516-2.836-1.467-3.688-3.147-2.556-5.04l-1.555-.75z"/>
            </g>
        </g>
    </g>
</svg>
