<svg xmlns="http://www.w3.org/2000/svg" xmlns:xlink="http://www.w3.org/1999/xlink" width="43" height="40" viewBox="0 0 43 40">
    <defs>
        <path id="a" d="M0 0h60v60H0z"/>
    </defs>
    <g fill="none" fill-rule="evenodd" transform="translate(-8 -13)">
        <mask id="b" fill="#fff">
            <use xlink:href="#a"/>
        </mask>
        <g mask="url(#b)">
            <path fill="#A5B500" stroke="#844C22" stroke-linecap="round" stroke-linejoin="round" d="M21.306 33.32c-2.57 4.632-3.611 8.567-3.124 11.806.487 3.238.454 5.34-.098 6.307 2.454-2.81 3.849-6.217 4.185-10.223.336-4.006.015-6.636-.963-7.89z"/>
            <g transform="rotate(-8 301.013 -124.157)">
                <ellipse cx="4.5" cy="6" fill="#3E3B3B" stroke="#844C22" rx="4.5" ry="6"/>
                <ellipse cx="4.05" cy="4.154" fill="#FEFEFE" opacity=".673" rx="1.35" ry="1.385"/>
                <ellipse cx="3.15" cy="6" fill="#FEFEFE" opacity=".673" rx="1" ry="1"/>
                <path fill="#000" d="M1.8 8.18c2.627.821 4.27.422 4.926-1.197.657-1.619.747-3.362.27-5.23.843 1.294 1.307 2.413 1.39 3.356.152 1.713.213 3.313-.9 4.09C5.454 10.615 3.56 10.276 1.8 8.18z"/>
                <path fill="#4B2B30" d="M1.928 1.846c-.855 1.894-.855 3.88 0 5.958.856 2.079 2.785 2.58 5.788 1.505-.892 1.4-2.007 2.1-3.345 2.1-2.006 0-2.764-1.519-3.38-3.115-.71-2.442-.398-4.592.937-6.448z"/>
            </g>
            <g transform="rotate(31 -54.103 39.726)">
                <ellipse cx="4.5" cy="6" fill="#3E3B3B" stroke="#844C22" rx="4.5" ry="6"/>
                <ellipse cx="4.05" cy="4.154" fill="#FEFEFE" opacity=".673" rx="1.35" ry="1.385"/>
                <ellipse cx="3.15" cy="6" fill="#FEFEFE" opacity=".673" rx="1" ry="1"/>
                <path fill="#000" d="M1.8 8.18c2.627.821 4.27.422 4.926-1.197.657-1.619.747-3.362.27-5.23.843 1.294 1.307 2.413 1.39 3.356.152 1.713.213 3.313-.9 4.09C5.454 10.615 3.56 10.276 1.8 8.18z"/>
                <path fill="#4B2B30" d="M1.928 1.846c-.855 1.894-.855 3.88 0 5.958.856 2.079 2.785 2.58 5.788 1.505-.892 1.4-2.007 2.1-3.345 2.1-2.006 0-2.764-1.519-3.38-3.115-.71-2.442-.398-4.592.937-6.448z"/>
            </g>
            <path stroke="#844C22" d="M48 15c-3.499.75-7.432 2.646-11.798 5.686-2.993 2.083-6.618 3.697-11.52 7.72C23.18 29.638 20.62 32.17 17 36"/>
            <g transform="rotate(-14 126.949 -82.304)">
                <ellipse cx="4.5" cy="6" fill="#3E3B3B" stroke="#844C22" rx="4.5" ry="6"/>
                <ellipse cx="4.05" cy="4.154" fill="#FEFEFE" opacity=".673" rx="1.35" ry="1.385"/>
                <ellipse cx="3.15" cy="6" fill="#FEFEFE" opacity=".673" rx="1" ry="1"/>
                <path fill="#000" d="M1.8 8.18c2.627.821 4.27.422 4.926-1.197.657-1.619.747-3.362.27-5.23.843 1.294 1.307 2.413 1.39 3.356.152 1.713.213 3.313-.9 4.09C5.454 10.615 3.56 10.276 1.8 8.18z"/>
                <path fill="#4B2B30" d="M1.928 1.846c-.855 1.894-.855 3.88 0 5.958.856 2.079 2.785 2.58 5.788 1.505-.892 1.4-2.007 2.1-3.345 2.1-2.006 0-2.764-1.519-3.38-3.115-.71-2.442-.398-4.592.937-6.448z"/>
            </g>
            <path stroke="#844C22" d="M36 20v5"/>
            <path fill="#A5B500" stroke="#844C22" d="M25 24.874c-4.761-1.505-7.93-1.066-9.506 1.316-1.652 2.496-4.15 4.765-7.494 6.805 5.524.069 9.35-.6 11.478-2.006 2.128-1.406 3.969-3.444 5.522-6.115zM38.646 18.636c-3.34-2.606-6.432-4.087-9.276-4.443-3.575-.448-6.512-.06-8.811 1.165 4.025 2.49 7.538 3.9 10.537 4.231 2.08.229 4.347.505 6.805.827a1 1 0 0 0 .745-1.78z"/>
            <path fill="#A5B500" stroke="#844C22" stroke-linecap="round" stroke-linejoin="round" d="M35.262 26.252c.087 4.637.811 8.304 2.172 10.999 1.56 3.089 3.633 5.638 6.219 7.649.164-2.813-.228-6.27-1.176-10.374-.805-3.48-2.656-6.494-5.554-9.044a1 1 0 0 0-1.66.77z"/>
            <path fill="#A5B500" stroke="#844C22" d="M41.01 20.752c.119 2.78.885 4.858 2.297 6.234 2.382 2.321 5.605 4.68 6.047 4.226.442-.453.753-4.729-1.392-8.163-1.263-2.022-3.222-3.135-5.878-3.338a1 1 0 0 0-1.075 1.04z"/>
            <path stroke="#844C22" d="M25 25c1.116-1.484 2.363-2.398 3.742-2.742 1.38-.344 3.132-.344 5.258 0M23.985 39c.07-1.35-.106-2.85-.527-4.5-.42-1.65-.907-3.15-1.458-4.5M38 19.035l4 .93M34 18.275c.74.367 1.695.367 2.866 0s2.216-.367 3.134 0M21.793 34l.414-3"/>
        </g>
    </g>
</svg>
