<svg xmlns="http://www.w3.org/2000/svg" xmlns:xlink="http://www.w3.org/1999/xlink" width="45" height="37" viewBox="0 0 45 37">
    <defs>
        <path id="a" d="M0 0h60v60H0z"/>
    </defs>
    <g fill="none" fill-rule="evenodd" transform="translate(-5 -14)">
        <mask id="b" fill="#fff">
            <use xlink:href="#a"/>
        </mask>
        <g mask="url(#b)">
            <path stroke="#844C22" stroke-linecap="round" stroke-linejoin="round" d="M16.026 38.185c-1.021 2.902-.184 5.251 2.512 7.048 2.697 1.796 6.095 1.563 10.195-.699-.914-2.21-2.187-4.12-3.817-5.727-1.63-1.607-4.155-2.584-7.574-2.932l-1.316 2.31z"/>
            <path fill="#FFF" stroke="#844C22" stroke-linecap="round" stroke-linejoin="round" d="M17.354 35.85c.519 2.24 1.843 4.226 3.973 5.957 2.13 1.73 4.463 2.52 7 2.367-.328-2.487-1.492-4.407-3.494-5.76-2.002-1.353-4.495-2.207-7.479-2.563z"/>
            <path fill="#C8C6C6" d="M16.307 41.472c1.049 1.458 1.988 2.187 2.818 2.187.83 0 1.139-.729.928-2.187 1.478 1.169 2.624 1.97 3.437 2.402.814.433 2.003.73 3.566.89-2.499 1.089-4.744 1.36-6.736.815-2.208-.75-3.546-2.118-4.013-4.107zM21.95 41.682c1.908 1.02 3.103 1.36 3.584 1.02.48-.34.48-1.304 0-2.891.82.954 1.344 1.578 1.574 1.87.23.294.444.989.645 2.087a8.68 8.68 0 0 1-2.22-.387c-.743-.23-1.938-.796-3.583-1.7z"/>
            <g>
                <path fill="#E8E3E3" stroke="#844C22" stroke-linecap="round" stroke-linejoin="round" d="M10.146 45.538c1.14 2.791 3.3 3.938 6.478 3.44 3.18-.5 5.552-2.943 7.12-7.33-2.127-.995-4.321-1.53-6.584-1.608-2.263-.077-4.779.903-7.547 2.938l.533 2.56z"/>
                <path fill="#F0F0F0" stroke="#844C22" stroke-linecap="round" stroke-linejoin="round" d="M6.676 39.86c3.804 3.342 7.064 4.93 9.78 4.762 2.714-.167 4.965-1.155 6.75-2.964-1.87-1.588-3.992-2.203-6.365-1.847-2.373.357-5.761.373-10.165.049z"/>
                <path fill="#C8C6C6" d="M12.506 47.737c1.733.358 2.908.26 3.525-.296.616-.555.369-1.292-.742-2.21 1.863-.14 3.239-.324 4.127-.554.888-.23 1.965-.81 3.231-1.74-1.144 2.463-2.635 4.163-4.473 5.1-2.13.933-4.02.833-5.668-.3zM16.836 44.114c2.086-.536 3.196-1.088 3.33-1.657.136-.568-.441-1.308-1.73-2.22.976.126 1.71.278 2.2.456.49.179 1.06.532 1.707 1.06-.312.366-.89.765-1.732 1.198-.842.433-2.1.82-3.775 1.163z"/>
            </g>
            <g>
                <g fill="#D8D8D8" stroke="#844C22" transform="translate(23 14)">
                    <path d="M13.47 4.364c-.34 5.221 1.154 9.778 4.483 13.668 4.994 5.837 6.593 10.238 3.93 13.615-1.777 2.251-3.999 2.92-6.667 2.007.872-1.69.872-4.441 0-8.252-1.308-5.717-2.256-11.264-2.256-13.817 0-1.702.17-4.109.51-7.221zM10.914 2.182l2.304 1.756c-.471 6.51-.215 11.742.769 15.698 1.476 5.935 5.438 16.686-4.428 15.938-9.867-.747-5.463-10.729-2.979-15.452 2.485-4.724 4.334-8.22 4.334-11.002V2.182z"/>
                    <path stroke-linecap="round" stroke-linejoin="round" d="M3.604 31.544C.208 29.804-.788 26.698.616 22.227c1.08-2.272 4.062-4.954 8.946-8.045-3.03 5.787-4.859 9.685-5.484 11.694-.626 2.01-.784 3.899-.474 5.668z"/>
                    <path d="M14.23 3.67c-.152 4.452.442 7.434 1.782 8.946 2.01 2.27 10.158 8.318 10.158 14.253 0 3.767-1.644 5.807-4.932 6.12 1.636-1.767 2.194-3.967 1.674-6.6-.78-3.949-4.554-7.407-6.102-9.758-1.548-2.351-2.58-4.233-2.58-6.71v-6.25z"/>
                    <ellipse cx="12.579" cy="2.793" rx="2.469" ry="1.484" transform="rotate(26 12.579 2.793)"/>
                </g>
                <path fill="#F0F0F0" d="M34.754 23.052c-.372 0-.78 6.076-1.776 8.77-.997 2.695-6.222 10.626-4.02 13.13 2.202 2.503 5.796 2.116 6.42-1.85.624-3.965-.769-10.657-.624-12.136.144-1.478.371-7.914 0-7.914zM41.906 44.828c.8-.08 1.83-.599 1.83-1.957s-.775-1.168-1.83-2.968c-1.056-1.8-.804-4.388-1.392-4.388-.588 0-.486 3.164 0 4.388.486 1.224.786 2.482.786 3.213 0 .732-.194 1.792.606 1.712zM24.788 37.114c-.461.844-.384 1.505 0 2.869.256.909.512 1.234.768.976.272-2.025.588-3.307.948-3.845.36-.539.902-1.622 1.626-3.252-1.92 1.605-3.035 2.689-3.342 3.252z"/>
            </g>
            <path stroke="#844C22" stroke-linecap="round" stroke-linejoin="round" d="M6.296 40c-.625 1.608-.26 3.397 1.092 5.367C8.741 47.337 10.945 48.548 14 49c-1.88-.853-3.042-1.865-3.488-3.037a14.473 14.473 0 0 1-.863-3.736L6.296 40z"/>
        </g>
    </g>
</svg>
