<svg xmlns="http://www.w3.org/2000/svg" xmlns:xlink="http://www.w3.org/1999/xlink" width="53" height="39" viewBox="0 0 53 39">
    <defs>
        <path id="a" d="M0 0h60v60H0z"/>
    </defs>
    <g fill="none" fill-rule="evenodd" transform="translate(-4 -11)">
        <mask id="b" fill="#fff">
            <use xlink:href="#a"/>
        </mask>
        <g mask="url(#b)">
            <path fill="#EECE92" stroke="#844C22" d="M35.62 35.41c.578 2.91 2.145 5.291 4.703 7.14 3.836 2.774 6.237 6.324 7.256 5.255 1.02-1.07-.778-3.67 0-5.255.779-1.583 2.204-3.57 3.146-5.355.943-1.786 2.072.12 3.672-3.38s1.6-5.476 1.6-7.312c0-1.835.132-4.276-1.6-5.688-1.154-.941-2.192-.941-3.112 0-.95-1.345-1.97-2.017-3.059-2.017-1.089 0-2.663-.77-4.724-2.31-.205-1.432-1.023-2.148-2.455-2.148-1.433 0-2.95-.508-4.55-1.523-1.096.545-2.093.545-2.992 0S31.568 12 30.392 12L29 12.817c1.06 3.288 2.076 5.564 3.047 6.828 1.458 1.896 2.565 6.71 3.07 8.533.335 1.215.504 3.625.504 7.231z"/>
            <path fill="#E5C388" stroke="#844C22" d="M23.927 18c-2.176.294-3.809.625-4.897.992-1.632.551-4.753 3.047-5.364 3.999-.61.952-3.52 5.924-4.298 8.419-.777 2.495-3.165 7.135-3.998 8.509-.833 1.373 0 2.605 0 3.217 0 .61 5.464 1.222 7.63.61 1.443-.407 2.465-.61 3.065-.61 1.229.808 2.447.808 3.654 0 1.206-.809 2.61-1.49 4.208-2.045 1.703.38 2.992.38 3.865 0 .874-.38 1.64-1.106 2.299-2.175.63.06 1.61-.197 2.943-.771 1.332-.575 1.988-1.527 1.965-2.857l-2.732-5.13L23.927 18z"/>
            <path fill="#D46917" d="M29.376 13.105l8.19 13.626c2.765 4.663 4.326 7.478 4.684 8.444.357.966 1.119 3.385 2.286 7.256l1.897.569.5-.442 2.228-3.67c-1.465-1.096-2.374-2.045-2.728-2.848-1.328-3.009-1.326-6.884-2.655-10.064-.885-2.12-2.24-5.867-4.063-11.238-.722-.158-1.33-.351-1.825-.578a8.244 8.244 0 0 1-1.406-.82c-.46.228-1.02.342-1.684.342-.995 0-1.327-.577-3.058-1.013-.114-.029-.513-.075-1.198-.14l-1.168.576z" opacity=".483"/>
            <path fill="#F6EFE0" stroke="#844C22" stroke-linecap="round" stroke-linejoin="round" d="M47.66 42.361c-.145.703.17 2.467.256 2.937.118.645.45 2.434-.385 3.311-4.961-2.957-7.495-5.641-8.46-6.835-.737-.91-3.028-5.494-3.585-6.471-5.686-9.987-7.06-10.6-7.767-11.835-.915-1.596-2.488-3.79-4.719-6.581l.876-1.963.273-.612c.974.905 1.707.905 2.197 0 .491-.906 1.43-.997 2.709-1.632"/>
            <path fill="#D17C35" d="M45.217 18.263c.683 3.294 1.405 5.761 2.167 7.404 1.143 2.464 1.143 3.248 1.143 6.13 0 1.921.75 3.403 2.253 4.447.313-.18.506-.285.58-.317.477-.209.505-.158.505-.158s-1.77-2.119-1.77-3.972c0-1.853-.915-4.745-1.568-6.822-.435-1.385-.966-3.359-1.591-5.92l-1.719-.792z"/>
            <path fill="#E7D5AF" d="M41.025 14.812c2.425 5.117 3.86 8.68 4.306 10.688.669 3.012 1.055 4.958 1.898 6.273.563.876 1.512 2.73 2.848 5.56.179-.408.365-.714.559-.92.194-.206.427-.367.7-.484-1.593-1.397-2.39-2.782-2.39-4.156 0-2.061.289-4.023-.776-5.606-.71-1.055-1.434-2.954-2.17-5.695l-.831-2.139-2.13-1.495c-.156-1.247-.58-1.87-1.273-1.87-.692 0-.94-.053-.741-.156z"/>
            <path fill="#E28F2A" d="M47.771 19.226c.798 2.884 1.523 5.265 2.175 7.145.978 2.82.414 4.904.978 5.85.375.631.882 1.557 1.52 2.779 1.687-3.699 2.53-6.062 2.53-7.089 0-1.54.488-5.15-.458-6.257-.358-.418-1.01-1.007-1.74-1.007-.629 0-1.135.336-1.519 1.007-.81-1.277-1.52-1.999-2.129-2.166-.609-.167-1.061-.254-1.357-.262z"/>
            <path fill="#F0E0C1" d="M5.504 41.776l.47 1.054c2.455.944 4.021 1.236 4.7.874 1.02-.542 4.947-1.414 5.445-1.414.499 0 1.149.54 2.334.54 1.184 0 3.616-1.867 5.322-2.545 1.706-.677 2.936.782 4.066 0a15.951 15.951 0 0 0 2.205-1.858c1.137.171 1.986-.024 2.547-.587.562-.563 1.163-1.468 1.803-2.715l-1.27-2.375c-1.197.465-2.223 1.098-3.08 1.897-.857.8-1.854 1.563-2.991 2.293-2.777.785-4.907 1.539-6.392 2.261-2.226 1.084-5.804 1.084-7.034 1.084-1.23 0-3.6 1.49-5.051 1.49H5.504z"/>
            <path fill="#F6BC7B" d="M10.382 42.667c2.413-.122 4.108-.446 5.083-.972.976-.527 1.813-.79 2.511-.79-.405 0-.405.36 0 1.08.608 1.079 3.063-1.08 3.693-1.08.42 0 1.28-.687 2.579-2.063.728.945 1.374 1.417 1.936 1.417.563 0 1.655-.872 3.276-2.615 1.629.133 2.672-.073 3.13-.618.459-.546 1.033-1.22 1.723-2.026l.687.989c-.905 1.233-1.708 2.017-2.41 2.351-.701.335-1.615.419-2.741.253-1.047 1.733-1.92 2.6-2.618 2.6s-1.692-.096-2.983-.288c-3.378 1.727-5.468 2.59-6.272 2.59-.803 0-1.475-.276-2.015-.828-1.575.552-2.628.828-3.157.828-.794 0-1.91.044-2.422.362-.512.319-3.58-.513-4.245-.793-.442-.187-.62-.643-.533-1.37l4.778.973z"/>
            <path fill="#CB5E1B" d="M12 26.642v11.711c0 .357.29.647.647.647.37 0 .682-.275.727-.643.417-3.345.626-5.461.626-6.347V25l-2 1.642z"/>
            <path fill="#B8490F" d="M21 19.603v17.864c.054.71.22.71.5 0 .42-1.065.5-7.093.5-8.932V19l-1 .603z"/>
            <path fill="#BC4606" d="M28.467 25.527c-.037.574-.04.926-.01 1.058.283 1.271.23 2.669-.158 4.194-.449 1.763-.392 3.17.168 4.221a9 9 0 0 0 2.033-1.322c.592-.516 1.426-.914 2.5-1.195a21.236 21.236 0 0 1-.968-1.704c-.31-.607-1.498-2.357-3.565-5.252z"/>
            <path fill="#E1AD4C" d="M18.082 22c-1.978 1.275-2.967 2.278-2.967 3.01 0 1.097 1.484 1.398 1.484 2.806 0 1.408-2.106 2.475-1.484 4.01.414 1.022.89 2.413 1.426 4.174 2.155-2.246 3.232-3.974 3.232-5.185 0-1.815-2.37-.63-1.69-1.815.678-1.184 2.564-2.553 1.69-3.99-.582-.958-.582-1.961 0-3.01h-1.69zM10.688 34C8.23 37.34 7 39.227 7 39.661c0 .652 3.065.325 3.688-.651.416-.652.416-2.321 0-5.01zM24.064 23.052c-.642.51 1.466 4.648.733 6.617-.733 1.969-1.797 3.947-1.797 4.86 0 .915 3.936.436 3.936-.913 0-1.35 1.064-5.297 1.064-6.495 0-1.197-3.295-4.58-3.936-4.069z" opacity=".531"/>
            <path fill="#EECE92" d="M38.064 20.983c-.338-.226.764-3.486.764-4.553 0-.712.376-1.278 1.129-1.7 1.087.784 1.239 1.704.456 2.762-1.174 1.586-2.01 3.718-2.349 3.491z"/>
            <path fill="#EEE2C9" d="M14.443 28.851c-.234-.337 1.098-.693 1.511-1.541.414-.848 3.318-1.3 3.338.048.02 1.348-.512.814-2.243 1.53-1.731.717-2.373.3-2.606-.037zM16.582 25.138c-.175-.252.824-.52 1.134-1.156.31-.636 2.488-.974 2.503.037.015 1.01-.384.61-1.682 1.147-1.299.538-1.78.225-1.955-.028zM24.687 19.997c-1.774.88-2.772 1.497-2.994 1.852-.332.53-1.026.71-1.02 2.09.005 1.38 1.857 1.243 2.627.01.77-1.232-1.143 3.01-1.584 3.714-.44.705-1.637.862-1.023 1.246.41.256 1.11.065 2.103-.571-.763 1.49-1.118 2.508-1.065 3.057.08.823 1.147-.975 1.147-.975s-1.278 2.08-1.14 2.79c.093.473 1.168-.128 3.224-1.802l-.01-2.482-2.268.75 1.65-2.64-1.043-.651 4.374-1.947-.905-1.406-.873-1.183-1.2-1.852z"/>
            <path fill="#E5C586" d="M29 13c5.01 11.143 7.516 17.458 7.516 18.945 0 2.232 1.266 5.304 1.893 5.882.627.579 2.509 1.4 3.327 2.465.545.71 1.044 2.303 1.497 4.78l3.775 2.616c-.2-1.665-.47-2.748-.814-3.248-.516-.75-1.591-.892-2.353-1.927-.761-1.034.583-2.434-.761-3.144-1.344-.71-3.193-2.17-3.193-2.93v-4.494c-1.463-2.383-2.587-4.268-3.371-5.654L29 13z" opacity=".294"/>
            <path fill="#DD932F" d="M7.116 39.097c-.992.79-1.323 1.391-.992 1.802.496.617 9.397-1.802 10.164-1.802.766 0 1.77-1.743 2.785-1.743 1.016 0 1.85 1.548 3.181.774s3.305-1.204 4.569-2.105c.842-.601 1.568-1.74 2.177-3.418L28.436 30c-1.203.875-2.215 1.743-3.034 2.605-1.23 1.292-3.666 2.372-4.332 2.895-.666.523-1.331-1.78-.666-2.337.666-.558-.744-.558-1.33-.558-.587 0-2.786 1.511-2.786 2.203s.846-1.517 0-2.203c-.847-.686-1.5.989-2.91 2.203-1.411 1.215-3.046 2.35-4.208 3.32-.775.646-1.46.97-2.054.97z" opacity=".556"/>
        </g>
    </g>
</svg>
