<svg xmlns="http://www.w3.org/2000/svg" xmlns:xlink="http://www.w3.org/1999/xlink" width="41" height="45" viewBox="0 0 41 45">
    <defs>
        <path id="a" d="M0 0h60v60H0z"/>
    </defs>
    <g fill="none" fill-rule="evenodd" transform="translate(-10 -6)">
        <mask id="b" fill="#fff">
            <use xlink:href="#a"/>
        </mask>
        <g mask="url(#b)">
            <g transform="rotate(-29 50.5 -.067)">
                <path stroke="#CA6C2E" stroke-width=".9" d="M16.443 36.406C12.123 34.42 2.768 23.672 1.419 16.072.069 8.472 1.254 3.495 6.524.835c5.27-2.66 11.54 1.56 14.5 5.342 2.96 3.782 8.008 18.941 6.767 24.506-1.241 5.565-7.028 7.71-11.348 5.723z"/>
                <path fill="#CA6C2E" d="M3.534 2.367c-1.926 4.517-2.33 8.492-1.208 11.927 1.681 5.152 8.891 18.212 16.342 19.455 7.452 1.242 8.479-4.027 8.479-6.386 0-1.572-.668-5.928-2.004-13.07 3.817 11.799 4.485 19.087 2.004 21.864-5.504 5.224-11.912 2.108-16.272-2.408-4.36-4.517-7.26-10.277-9.657-17.532C-.38 11.379.393 6.763 3.534 2.367z"/>
                <path fill="#F79E98" stroke="#FED8CC" stroke-width="1.8" d="M2.834 13.12c.816 3.513 7.648 16.22 11.649 18.684 5.862 4.272 9.446 2.095 11.108 0 1.662-2.095.916-8.644-.513-13.85-1.43-5.207-4.506-13.997-9.477-16.38C10.629-.81 6.79.475 4.566 3.16 2.341 5.845 2.02 9.605 2.834 13.119z"/>
                <path stroke="#FED8CC" stroke-width=".9" d="M8.403 1.314c.51 1.726.226 3.644-.852 5.754-1.079 2.11-2.54 3.608-4.385 4.493"/>
                <path stroke="#FFD9CC" stroke-width=".9" d="M8.947 1.72c5.153 2.215 7.903 5.132 8.25 8.753.348 3.621.174 6.186-.521 7.694M9.561 14.44c-2.183.302-3.274 1.256-3.274 2.864 0 2.412 1.654 6.733 3.795 7.7 2.14.966 8.22 0 9.237 0 .678 0 1.597-.256 2.756-.767"/>
                <path stroke="#FED8CC" stroke-width=".9" d="M20.483 19.634c1.043 1.283 1.565 2.918 1.565 4.904 0 2.98-.827 4.456-1.565 6.132a8.826 8.826 0 0 0-.739 3.6"/>
                <ellipse cx="18.578" cy="18.593" fill="#F79E98" stroke="#FED8CC" stroke-width=".9" rx="2.266" ry="2.267"/>
                <path stroke="#FED8CC" stroke-width=".9" d="M14.964 5.768V3.809 1.593"/>
            </g>
            <path stroke="#782A24" stroke-width=".9" d="M39.108 50.346c-4.784-.22-20.858-7.13-24.979-13.7-4.12-6.57-3.75-12.113.174-16.58 3.924-4.467 11.532-2.605 15.721-.2 4.19 2.405 15.892 16.166 16.827 21.818.935 5.652-2.96 8.881-7.743 8.662z"/>
            <g transform="translate(21 7)">
                <path stroke="#CA6C2E" stroke-width=".9" d="M16.443 36.668c-4.32-1.952-13.675-12.514-15.024-19.983-1.35-7.469-.165-12.36 5.105-14.974 5.27-2.614 11.54 1.534 14.5 5.25 2.96 3.717 8.008 18.614 6.767 24.083-1.241 5.47-7.028 7.576-11.348 5.624z"/>
                <path fill="#CA6C2E" d="M3.534 3.217c-1.926 4.439-2.33 8.346-1.208 11.721 1.681 5.063 8.891 17.898 16.342 19.119 7.452 1.22 8.479-3.958 8.479-6.275 0-1.545-.668-5.826-2.004-12.844 3.817 11.594 4.485 18.756 2.004 21.485-5.504 5.134-11.912 2.072-16.272-2.366-4.36-4.439-7.26-10.099-9.657-17.23-1.598-4.753-.825-9.29 2.316-13.61z"/>
                <path fill="#F79E98" stroke="#FED8CC" stroke-width="1.8" d="M2.834 13.784c.816 3.453 7.648 15.94 11.649 18.362 5.862 4.198 9.446 2.059 11.108 0 1.662-2.06.916-8.495-.513-13.611-1.43-5.117-4.506-13.756-9.477-16.097C10.629.096 6.79 1.359 4.566 3.998 2.341 6.635 2.02 10.33 2.834 13.783z"/>
                <path stroke="#FED8CC" stroke-width=".9" d="M7.955 2.674c.511 1.695.227 3.58-.851 5.654-1.079 2.074-2.54 3.546-4.385 4.416"/>
                <path stroke="#FFD9CC" stroke-width=".9" d="M9.063 2.674c5.152 2.176 7.902 5.043 8.25 8.601.347 3.559.173 6.08-.522 7.562M9.618 15.152c-2.183.296-3.274 1.234-3.274 2.814 0 2.37 1.654 6.617 3.795 7.566 2.14.95 8.22 0 9.237 0 .678 0 1.597-.25 2.756-.753"/>
                <path stroke="#FED8CC" stroke-width=".9" d="M19.77 20.5c1.044 1.261 1.565 2.868 1.565 4.82 0 2.928-.827 4.379-1.565 6.025a8.545 8.545 0 0 0-.739 3.539"/>
                <ellipse cx="18.578" cy="19.163" fill="#F79E98" stroke="#FED8CC" stroke-width=".9" rx="2.266" ry="2.228"/>
                <path stroke="#FED8CC" stroke-width=".9" d="M14.5 6.777V4.852 2.674"/>
                <path stroke="#782A24" stroke-width=".9" d="M18.832 39.939C14.512 37.987 1.795 23.557.446 16.088c-1.35-7.47 1.052-12.36 6.323-14.974 5.27-2.614 11.58 1.863 14.54 5.58 2.96 3.716 8.612 20.485 7.371 25.954-1.24 5.47-5.528 9.243-9.848 7.291z"/>
            </g>
        </g>
    </g>
</svg>
