<svg xmlns="http://www.w3.org/2000/svg" xmlns:xlink="http://www.w3.org/1999/xlink" width="58" height="31" viewBox="0 0 58 31">
    <defs>
        <path id="a" d="M0 0h60v60H0z"/>
    </defs>
    <g fill="none" fill-rule="evenodd" transform="translate(-1 -13)">
        <mask id="b" fill="#fff">
            <use xlink:href="#a"/>
        </mask>
        <g mask="url(#b)">
            <path fill="#2B6E0C" stroke="#844C22" d="M23.551 29.152c-3.563.217-5.45 1.237-6.749 3.787a6.096 6.096 0 0 0 4.935 8.843c8.518.697 15.648-.313 21.39-3.028 10.234-4.84 14.446-10.3 11.668-13.529-2.778-3.23-7.115 5.786-16.69 3.943-9.577-1.843-10.99-.234-14.554-.016z"/>
            <path fill="#3F9E13" stroke="#844C22" d="M16.737 32.838c-1.499-.372-2.478-.078-2.938.884-.69 1.443-1.074 2.888-.438 4.15.424.84 1.55 1.103 3.375.788a7.9 7.9 0 0 1-.571-2.914c0-.974.19-1.943.572-2.908z"/>
            <path fill="#34870F" stroke="#844C22" stroke-linecap="round" stroke-linejoin="round" d="M2.04 30.269c2.482 2.166 4.322 3.574 5.52 4.223 1.197.65 2.913 1.235 5.147 1.758l.463-1.758c-1.755-.043-3.342-.455-4.762-1.237-1.42-.781-3.356-2.01-5.808-3.687l-.56.701z"/>
            <path stroke="#FFF" stroke-linecap="round" stroke-linejoin="round" d="M21.642 37.69c.507.693 1.599 1.025 3.276.996 1.677-.03 2.761-.136 3.253-.32"/>
            <g>
                <path fill="#3FA610" stroke="#844C22" d="M36.233 25c-2.37-1.803-4.096-2.183-6.244-1.272a5.028 5.028 0 0 0-1.621 8.154c5.085 5.174 10.177 8.47 15.277 9.889 8.999 2.503 13.535-.22 14.104-1.695.603-1.564-7.534.228-12.643-6.162-5.109-6.39-6.503-7.11-8.873-8.913z"/>
                <path fill="#3FA610" stroke="#844C22" d="M30.05 23.716c-.673-.992-1.41-1.313-2.21-.961-1.202.528-2.207 1.223-2.459 2.354-.168.754.327 1.433 1.483 2.036l3.185-3.429z"/>
                <path fill="#34870F" stroke="#844C22" stroke-linecap="round" stroke-linejoin="round" d="M26.994 22.869c-.87-.343-1.922-1.315-3.158-2.916-1.236-1.602-2.375-3.47-3.417-5.605l-.66.438c1.06 2.67 1.956 4.6 2.69 5.793.736 1.193 1.76 2.378 3.073 3.557l1.472-1.267z"/>
                <path stroke="#FFF" stroke-linecap="round" stroke-linejoin="round" d="M30.554 29.527c.237.943 1.379 2.243 3.425 3.9s3.417 2.673 4.113 3.049"/>
            </g>
        </g>
    </g>
</svg>
