<svg xmlns="http://www.w3.org/2000/svg" xmlns:xlink="http://www.w3.org/1999/xlink" width="57" height="35" viewBox="0 0 57 35">
    <defs>
        <path id="a" d="M0 0h60v60H0z"/>
    </defs>
    <g fill="none" fill-rule="evenodd" transform="translate(0 -15)">
        <mask id="b" fill="#fff">
            <use xlink:href="#a"/>
        </mask>
        <g mask="url(#b)">
            <path fill="#F5F2EC" stroke="#A14638" d="M27.155 46c-7.867-1.333-12.78-3.066-14.742-5.2-2.942-3.2-5.267-8.757-1.321-14.8 3.945-6.042 8.991-8.025 16.063-9.485 7.072-1.459 14.672.462 17.402 2.257 2.73 1.795 4.596 1.997 6.006 6.073.94 2.717.364 6.677-1.726 11.881L27.155 46z"/>
            <path fill="#F6E4AD" stroke="#782A24" d="M27.596 46C26.532 44.139 26 42.404 26 40.795c0-2.412 1.124-8.048 6.724-12.572 5.6-4.524 12.617-6.255 16.638-4.618 2.184.782 2.184 5.147 0 13.094L27.596 46z"/>
            <path fill="#E1DBD4" d="M9 33c1.502 3.858 4.238 6.272 8.207 7.241 3.968.97 6.69 1.48 8.166 1.531.36 1.218.687 2.164.983 2.837.296.674.51 1.137.644 1.391-5.689-.927-9.86-2.155-12.515-3.685C11.83 40.786 10.002 37.681 9 33z"/>
            <path fill="#DDD9CF" d="M17.087 21c-.746 1.133-.134 1.857 1.836 2.173 2.955.473 6.484-1.397 8.105 0 1.621 1.397-1.496 2.406 0 3.516.997.74 3.32.74 6.972 0-3.547 3.207-5.87 5.877-6.972 8.008-1.102 2.132-1.726 4.566-1.872 7.303-5.051-.006-8.783-.81-11.195-2.414-2.412-1.603-4.057-3.65-4.934-6.138-.185-1.8.591-4.054 2.328-6.76 1.738-2.705 3.648-4.601 5.732-5.688z"/>
            <path stroke="#782A24" d="M27.174 46c-7.875-1.333-12.794-3.066-14.758-5.2-2.945-3.202-5.271-8.762-1.322-14.806 3.95-6.044 9-8.028 16.08-9.487 4.02-.83 10.8-.818 15.982 1.39 3.943 1.679 6.533 4.075 7.45 6.941.872 2.729.297 6.69-1.728 11.886L27.174 46z"/>
            <path fill="#FFFCFF" d="M26 18c5.409.555 9.142 1.29 11.198 2.205 2.056.914 3.803 1.846 5.24 2.795.386-.248.993-.372 1.823-.372H47c-3.01-1.674-5.667-2.864-7.97-3.57C36.724 18.353 32.381 18 26 18z"/>
            <path fill="#F6E4AD" stroke="#782A24" d="M32.597 42.227c-2.11 2.254 1.675 2.86 6.568 3.637 4.893.777 11.347-1.896 14.552-5.113 3.206-3.218 2.878-8.751 0-8.751-2.877 0-19.01 7.973-21.12 10.227z"/>
            <path fill="#ECE9E1" stroke="#782A24" stroke-linecap="round" stroke-linejoin="round" d="M33 44.25c4.56 4.013 9.92 5.483 16.08 4.41 6.16-1.071 8.49-5.853 6.991-14.346-.707 3.679-1.777 6.084-3.211 7.215-2.151 1.696-3.401 3.253-8.99 4.32-3.727.711-7.35.178-10.87-1.599z"/>
            <path fill="#C6B79B" d="M44.458 42c-1.458.973-1.822 1.801-1.094 2.485C44.458 45.512 46 44.918 46 43.46c0-.973-.514-1.459-1.542-1.459zM40.26 42c-1.12.667-1.493 1-1.12 1H42l-1.74-1z"/>
            <path fill="#74B606" stroke="#782A24" d="M8.99 35c.653-.667-.41-1-3.186-1s-4.71.987-5.804 2.96c2.61.445 5.334 1.741 8.17 3.89 1.492.368 2.69.368 3.594 0a5.813 5.813 0 0 0-1.283-2.602c-.638-.74-1.134-1.822-1.49-3.248z"/>
            <path fill="#95CE3D" stroke="#782A24" d="M11.626 41.185c-3.15-.412-5.102-.137-5.855.826-.754.962-2.01 2.475-3.771 4.538 3.276 1.354 5.6 1.703 6.968 1.047C11.022 46.612 10.903 49 13.3 49c1.597 0 2.373-.817 2.328-2.451.878.698 1.7 1.047 2.465 1.047.765 0 1.046-.936.843-2.809-1.803-.264-3.207-.793-4.211-1.586a19.388 19.388 0 0 0-3.1-2.016z"/>
            <path fill="#609F06" d="M2.88 46.324C5.913 44.108 7.977 43 9.074 43c1.096 0 2.938.227 5.526.682l1.275.712c-3.267-.665-5.534-.902-6.801-.712-1.268.191-3.332 1.072-6.194 2.642zM.82 36.514c3.616-.935 5.88-1.096 6.788-.483.91.613 1.38.893 1.414.838l.622 1.105a77.397 77.397 0 0 0-2.264-1.105c-1.158-.551-3.344-.67-6.56-.355z"/>
        </g>
    </g>
</svg>
