<svg xmlns="http://www.w3.org/2000/svg" xmlns:xlink="http://www.w3.org/1999/xlink" width="57" height="40" viewBox="0 0 57 40">
    <defs>
        <path id="a" d="M0 0h60v60H0z"/>
    </defs>
    <g fill="none" fill-rule="evenodd" transform="translate(-3 -9)">
        <mask id="b" fill="#fff">
            <use xlink:href="#a"/>
        </mask>
        <g mask="url(#b)">
            <path fill="#97C615" d="M13.98 27.66C9.327 21.985 7 18.562 7 17.392c0-1.756 3.242-1.756 5.11-1.756 1.87 0 3.918 3.203 5.246 3.203 1.329 0 1.058-1.447 2.544-1.447s1.644 1.447 2.904 1.447.158-5.114 1.26-5.114c1.104 0 .902 1.911 3.153 1.911 2.25 0 1.845-5.636 5.313-5.636 3.467 0 7.878 1.814 6.82 3.725-1.057 1.911-2.114 3.667-1.057 3.667 1.058 0 2.185-3.667 4.886-3.667 2.7 0 5.38 2.229 5.38 3.667 0 1.438 1.801 0 4.255 0 2.453 0 2.453 5.327 2.453 5.327s4.88 2.439 4.052 4.94c-.828 2.502-8.667 4.496-13.147 4.496-2.986 0-12.592.863-28.816 2.587L13.98 27.66z"/>
            <path fill="#BCF21D" d="M41.946 18.433c1.84-2.145 3.343-2.145 4.509 0 1.748 3.217-.755 4.55 1.748 4.55S52.473 21 54.442 24.1c1.969 3.1-2.098 3.85-5.043 4.967-1.963.744-4.889 1.744-8.777 3l-4.049-3c10.514-2.012 14.79-3.017 12.826-3.017-2.944 0-5.667-1.605-5.667-1.605s1.786-4.445 0-4.445c-1.19 0-1.786-.522-1.786-1.567zM25.568 17.283c2.048.722 3.465.44 4.25-.85C30.998 14.5 31.182 12 32.673 12c1.49 0 1.384 1.798 2.378 1.798.994 0 2.608 0 2.608 1.038 0 .692-.312 1.224-.938 1.597.322-.705.217-1.237-.317-1.597-.8-.54-1.132.25-1.707 0-1.652-.718-1.403-2.1-2.024-1.52-.621.58-.53 2.779-2.066 3.967-1.024.792-2.704.792-5.038 0z"/>
            <path fill="#8AAB00" d="M18.557 32.074l-6.81-11.3c1.13-.833 2.264-.833 3.405 0a30.165 30.165 0 0 0 3.405 2.134s.072-2.133 1.103-2.133c1.032 0 1.14 2.133 2.706 2.133 1.043 0 2.41-.711 4.104-2.133l1.84 2.133s3.295-5.283 4.362-5.283c.711 0 1.067.41 1.067 1.233l2.742-1.233-1.638 5.283s2.429-1.942 3.644 0c.81 1.294 1.214 2.472 1.214 3.533h5.614l-10.472 5.633H18.557z"/>
            <path stroke="#9F4639" d="M13.98 27.66C9.327 21.985 7 18.562 7 17.392c0-1.756 3.242-1.756 5.11-1.756 1.87 0 3.918 3.203 5.246 3.203 1.329 0 1.058-1.447 2.544-1.447s1.644 1.447 2.904 1.447.158-5.114 1.26-5.114c1.104 0 .902 1.911 3.153 1.911 2.25 0 1.845-5.636 5.313-5.636 3.467 0 7.878 1.814 6.82 3.725-1.057 1.911-2.114 3.667-1.057 3.667 1.058 0 2.185-3.667 4.886-3.667 2.7 0 5.38 2.229 5.38 3.667 0 1.438 1.801 0 4.255 0 2.453 0 2.453 5.327 2.453 5.327s4.88 2.439 4.052 4.94c-.828 2.502-8.667 4.496-13.147 4.496-2.986 0-12.592.863-28.816 2.587L13.98 27.66z"/>
            <path fill="#E9E7D5" d="M3.778 28.213l-.002 6.869c9.664 4.735 14.852 6.935 15.566 6.603.713-.333.871-2.534.473-6.603-4.587-1.884-8.145-3.23-10.674-4.041-2.53-.81-4.317-1.753-5.363-2.828z"/>
            <path fill="#CDC7A5" d="M19.743 35.106l25.222-8.733-.002 6.556-26.271 8.527z"/>
            <path fill="#FAFAFA" d="M4.627 27.094c-1.996.443-1.997 1.148-.001 2.114 2.288 1.107 14.09 6.108 15.051 6.078.594-.018 25.894-7.067 25.436-8.05-.417-.893-6.327-2.977-17.731-6.252l-22.755 6.11z"/>
            <g>
                <path fill="#E9E7D5" d="M20.258 23.1l-2.142 5.775c5.71 8.493 8.917 12.74 9.623 12.74.706 0 1.896-1.871 3.57-5.613-2.719-3.16-4.952-5.536-6.7-7.127-1.748-1.591-3.199-3.516-4.351-5.774z"/>
                <path fill="#CDC7A5" d="M31.142 36.2a63.955 63.955 0 0 1 11.328-3.21c3.868-.72 8.103-1.61 12.704-2.669l-1.295 5.88c-7.366 1.6-12.3 2.8-14.802 3.6C36.574 40.6 32.853 41 27.913 41l3.23-4.8z"/>
                <path fill="#FAFAFA" d="M21.777 23.125c-1.841-.079-2.135.637-.88 2.146 1.438 1.732 3.381 3.826 5.818 6.33a167.346 167.346 0 0 1 4.35 4.682c2.06-.713 3.951-1.237 5.673-1.573C44.903 33.12 56 31.608 56 30.655 56 29.357 46.33 18 44.429 18c-1.267 0-8.818 1.708-22.652 5.125z"/>
            </g>
            <path fill="#478006" d="M7.298 37.183c1.28 2.848 3.62 4.847 7.019 5.998 2.037.69 4.7 1.127 7.988 1.313 2.198.124 3.4.297 3.453-.312.053-.61-5.933-.445-9.326-1.673-2.261-.819-5.306-2.594-9.134-5.326z"/>
            <path fill="#79AE18" d="M7.209 37.223c.727 1.445 2.79 2.748 6.19 3.91 2.04.695 4.703 1.136 7.994 1.32 2.198.124 3.4.298 3.455-.32.054-.617-5.937-.443-9.33-1.683-2.263-.827-5.032-1.902-8.31-3.227z"/>
            <path fill="#478006" d="M6.992 37.009c-.01 1.714 1.352 3.732 4.089 6.054 1.64 1.391 3.942 2.824 6.908 4.297 1.981.985 3.03 1.611 3.288 1.124.259-.487-5.313-2.75-8.016-5.133-1.014-.894-3.103-3.008-6.269-6.342z"/>
            <path fill="#478006" d="M7.303 36.79c.37 1.758 2.375 3.798 6.015 6.12 2.183 1.392 4.208 1.806 7.606 2.626 2.69.65 9.901-.263 10.124-.844.222-.58-11.485.696-15.098-1.7-2.408-1.597-5.29-3.664-8.647-6.203z"/>
            <path stroke="#9F4639" stroke-linecap="round" stroke-linejoin="round" d="M12.423 24.917L4 27.493v7.353L19.223 41 25 38.856 27.83 41c4.254-1.047 7.643-1.761 10.167-2.144 3.786-.574 9.247-1.274 11.352-1.883 1.26-.365 2.75-.739 4.467-1.121a1 1 0 0 0 .75-.72L56 29.704 45.267 17l-16.6 3.653-16.244 4.264z"/>
        </g>
    </g>
</svg>
