<svg xmlns="http://www.w3.org/2000/svg" xmlns:xlink="http://www.w3.org/1999/xlink" width="49" height="42" viewBox="0 0 49 42">
    <defs>
        <path id="a" d="M0 0h60v60H0z"/>
        <path id="c" d="M.08 5.466l6.266 24.558c5.368 2.029 11.155 2.536 17.36 1.522 6.205-1.015 10.196-3.791 11.973-8.329V.042L.079 5.466z"/>
        <path id="e" d="M3.439 27.473L.435 7.54c4.702 1.366 9.822 1.21 15.36-.467S25.382 3.2 27.943.487l12.433 18.655-36.937 8.33z"/>
    </defs>
    <g fill="none" fill-rule="evenodd" transform="translate(-5 -10)">
        <mask id="b" fill="#fff">
            <use xlink:href="#a"/>
        </mask>
        <g mask="url(#b)">
            <g transform="rotate(24 -19.546 97.274)">
                <ellipse cx="11.108" cy="13.544" fill="#FF5151" stroke="#503117" rx="11.108" ry="10.158"/>
                <path fill="#DF3C3C" d="M3.758 20.01c4.34.684 8.289-.471 11.849-3.465 3.56-2.993 4.938-5.89 4.134-8.687 3.558 4.684 2.845 9.072-2.137 13.165-5.612 3.173-10.227 2.835-13.846-1.014z"/>
                <path fill="#92C28F" stroke="#503117" d="M8.269 3.065c-.986-.54-2.027-.54-3.12 0-1.094.54-1.641 1.273-1.641 2.198 1.4-.82 2.455-1.025 3.163-.615.708.41 1.24.615 1.598.615-.357.479-.357 1.11 0 1.892.358.782.826 1.173 1.405 1.173.786-.776 1.18-1.481 1.18-2.115 0-.633-.394-1.406-1.18-2.319 1.794-.913 2.69-.913 2.69 0s.798 1.164 2.392.754a7.422 7.422 0 0 0-1.48-2.263c-.607-.628-1.808-.628-3.602 0V0H8.269v3.065z"/>
            </g>
            <g transform="translate(-1 2)">
                <mask id="d" fill="#fff">
                    <use xlink:href="#c"/>
                </mask>
                <g mask="url(#d)">
                    <g transform="translate(7.2 8.454)">
                        <ellipse cx="13.8" cy="17.846" fill="#E72B2B" stroke="#503117" rx="13.8" ry="13.087"/>
                        <path fill="#C31616" d="M2.933 25.014c5.911 1.94 11.08.998 15.506-2.826 4.427-3.823 5.73-8.496 3.91-14.018 1.546 1.457 2.584 2.662 3.113 3.616 2.9 5.232 1.82 11.017-3.649 15.93-6.978 4.052-13.271 3.152-18.88-2.702z"/>
                        <path fill="#92C28F" stroke="#503117" d="M11.14 4.592c-1.227-.69-2.52-.69-3.88 0-1.36.69-2.04 1.626-2.04 2.808 1.742-1.047 3.053-1.31 3.933-.785.88.523 1.542.785 1.987.785-.445.611-.445 1.416 0 2.415.444 1 1.027 1.5 1.747 1.5.977-.992 1.466-1.892 1.466-2.701 0-.81-.489-1.797-1.466-2.963 2.23-1.165 3.346-1.165 3.346 0 0 1.166 1.232 1.356 3.697.569-1.005-1.326-1.886-2.389-2.642-3.19-.756-.801-2.223-.57-4.401.694V.678H11.14v3.914z"/>
                    </g>
                </g>
            </g>
            <g transform="translate(8 35.154)">
                <mask id="f" fill="#fff">
                    <use xlink:href="#e"/>
                </mask>
                <g mask="url(#f)">
                    <path fill="#E72B2B" stroke="#503117" d="M13.55 16.154c7.419 0 13.897-5.912 13.897-12.922 0-7.01-6.478-12.463-13.897-12.463C6.13-9.23.117-3.548.117 3.462S6.13 16.154 13.55 16.154z"/>
                    <path fill="#C31616" d="M4.064 11.704c5.026 1.02 9.693-.324 14.002-4.032 4.309-3.708 6.5-7.755 6.573-12.143 3.825 7.18 2.748 13.062-3.232 17.649-6.243 3.733-12.024 3.241-17.343-1.474z"/>
                    <path fill="#92C28F" stroke="#503117" d="M10.96-9.392c-1.194-.67-2.452-.67-3.776 0-1.324.669-1.986 1.576-1.986 2.722C6.893-7.685 8.17-7.94 9.026-7.43c.857.508 1.502.761 1.934.761-.432.593-.432 1.374 0 2.343.433.97 1 1.454 1.7 1.454.952-.962 1.428-1.835 1.428-2.62 0-.784-.476-1.742-1.427-2.872 2.171-1.13 3.257-1.13 3.257 0s.965 1.442 2.895.934c-.459-1.092-1.056-2.027-1.791-2.804-.736-.777-2.19-.777-4.361 0v-2.954h-1.7v3.797z"/>
                </g>
            </g>
            <path fill="#FF5C5C" stroke="#52341B" d="M9.025 43.057c.69 1.711 8.618 2.123 15.574 0 6.956-2.123 10.592-5.03 10.592-6.854 0-1.823-6.023-2.007-14.225 0S8.335 41.346 9.025 43.057z"/>
            <path stroke="#52341B" d="M6.598 31.903c4.522 2.235 9.698 2.737 15.526 1.506C27.952 32.177 31.91 29.708 34 26"/>
            <path fill="#C31616" d="M17.997 39C14.666 40.224 13 41.052 13 41.484 13 42.132 14.7 43 16.292 43c1.593 0 3.48-1.505 4.966-1.505.99 0 .99-.502 0-1.505l-2.204 1.261a1 1 0 0 1-.845.07l-.622-.232a.392.392 0 0 1 .017-.74l1.655-.531a.62.62 0 0 0-.588-.818h-.674zM21.77 38H18c3.3-1.333 5.347-2 6.143-2H27l-2.857 2-1.643-1-.73 1zM26 38.37L28.159 36h2.916c.925 1.58 1.156 2.37.694 2.37-.463 0-1.666.544-3.61 1.63v-1.63H26z"/>
            <path fill="#C31616" d="M23 39.94V42c1.411-.687 2.493-1.03 3.247-1.03.753 0 1.67-.344 2.753-1.03L26 39l-1.108.94H23z"/>
        </g>
    </g>
</svg>
